<?xml version="1.0" encoding="UTF-8" standalone="no"?>
<!DOCTYPE svg PUBLIC "-//W3C//DTD SVG 1.1//EN" "http://www.w3.org/Graphics/SVG/1.1/DTD/svg11.dtd">
<!-- Created with Vectornator (http://vectornator.io/) -->
<svg height="100%" stroke-miterlimit="10" style="fill-rule:nonzero;clip-rule:evenodd;stroke-linecap:round;stroke-linejoin:round;" version="1.1" viewBox="0 0 1012.02 865.684" width="100%" xml:space="preserve" xmlns="http://www.w3.org/2000/svg" xmlns:vectornator="http://vectornator.io" xmlns:xlink="http://www.w3.org/1999/xlink">
<defs/>
<g id="Sin-título" vectornator:layerName="Sin título">
<g opacity="1" vectornator:layerName="g">
<g opacity="1" vectornator:layerName="g">
<path d="M711.897 187.084C711.356 187.138 710.893 187.025 710.847 186.828C710.807 186.632 709.592 187.143 708.14 187.92C706.7 188.763 705.452 189.359 705.386 189.312C705.32 189.265 705.69 188.812 706.132 188.298C706.667 187.748 707.143 186.762 707.288 185.93L707.559 184.522L706.284 185.763C705.281 186.697 704.937 187.28 704.779 188.435C704.6 189.74 704.29 190.067 701.471 191.907C697.363 194.534 697.126 194.585 698.195 192.922C699.047 191.549 699.523 188.968 699.001 188.592C698.869 188.499 698.275 189.175 697.74 190.114C696.974 191.385 696.729 192.146 696.789 193.293C696.888 194.743 696.815 194.805 693.613 197.14C691.803 198.435 690.258 199.423 690.192 199.376C690.126 199.329 690.569 198.32 691.229 197.194C692.087 195.605 692.391 194.717 692.404 193.295C692.49 190.54 692.028 190.318 690.721 192.528C689.651 194.406 689.103 196.94 689.697 197.363C689.856 197.48 689.955 198.047 689.968 198.608C689.955 199.426 689.327 200.187 686.871 202.179C685.194 203.568 683.728 204.668 683.629 204.598C683.53 204.528 683.932 203.602 684.54 202.603C685.134 201.538 685.768 200.066 685.986 199.28C686.389 197.751 686.092 194.284 685.583 194.47C685.398 194.501 684.652 195.73 683.913 197.132C682.566 199.641 682.526 199.725 682.935 202.337C683.285 204.901 683.259 205.051 682.288 206.007C679.053 209.203 677.752 210.313 677.554 210.173C677.395 210.055 677.791 208.849 678.392 207.461C679.654 204.559 679.971 202.248 679.396 200.015L678.967 198.437L677.943 200.189C676.266 202.959 675.89 205.115 676.504 208.149L677.045 210.854L673.691 214.517C671.822 216.543 668.97 219.956 667.312 222.187C665.642 224.353 664.195 226.188 664.077 226.267C663.826 226.36 664.057 224.045 664.545 221.529C665.259 218.12 665.001 215.453 663.72 212.769L662.531 210.262L662.049 212.067C661.079 215.676 660.544 219.872 660.881 221.271C661.105 222.039 661.713 223.412 662.248 224.349C663.872 226.945 663.852 226.879 661.732 230.378C660.663 232.148 659.217 234.587 658.517 235.904C657.797 237.156 657.203 237.941 657.11 237.655C657.071 237.35 657.236 235.484 657.48 233.45C658.061 228.459 657.738 225.637 656.225 222.788C655.532 221.519 654.806 220.333 654.575 220.168C653.756 219.581 652.554 229.862 653.142 232.268C653.313 233.054 654.244 234.769 655.182 236.162L656.892 238.655L654.713 244.264C653.525 247.386 652.237 251.148 651.848 252.635C651.438 254.164 651.022 255.412 650.923 255.449C650.619 255.561 650.296 251.855 650.375 249.207C650.507 245.441 649.345 240.305 647.767 238.013C646.235 235.701 644.3 233.54 644.115 233.96C644.043 234.128 643.924 236.472 643.897 239.209C643.732 247.092 644.941 251.325 648.15 253.626C648.645 253.979 649.451 254.888 649.893 255.648C650.619 256.834 650.652 257.353 650.17 259.546C649.616 262.015 649.068 266.144 648.718 270.2L648.586 272.197L647.938 270.909C647.595 270.22 646.651 267.555 645.865 265.008C645.139 262.442 643.904 259.243 643.164 257.884C642.002 255.724 641.533 255.223 638.469 253.08C636.634 251.766 634.877 250.778 634.567 250.89C633.907 251.131 636.251 260.649 637.915 264.434C639.394 267.755 640.8 269.154 643.805 270.149C645.079 270.569 646.684 271.331 647.338 271.801C648.453 272.599 648.539 272.884 648.506 275.234C648.447 278.443 648.896 286.491 649.418 291.223C649.649 293.156 649.741 294.822 649.642 294.859C649.338 294.971 647.8 290.999 646.968 287.866C645.872 283.877 644.558 280.566 643.012 277.801C641.969 275.95 641.21 275.129 638.918 273.485C635.643 271.137 632.896 269.66 632.678 270.165C632.606 270.333 633.378 273.592 634.349 277.379C637.334 288.401 639.48 291.761 644.531 293.179C647.04 293.93 649.794 295.795 649.999 296.993C650.276 298.239 651.26 312.679 651.498 318.646C651.649 321.458 651.775 324.527 651.795 325.477C651.887 327.143 651.867 327.185 651.55 326.132C651.339 325.537 650.864 322.77 650.461 319.943C649.14 310.938 647.562 305.67 645.132 302.164C643.666 300.007 636.257 293.147 635.643 293.37C635.082 293.574 636.68 307.189 637.941 312.783C638.595 315.732 639.632 319.072 640.312 320.276C641.428 322.347 641.817 322.736 646.631 326.188C649.609 328.325 651.828 330.137 651.914 330.531C652.356 332.777 651.663 364.609 651.121 364.772C650.765 364.901 649.754 357.338 649.49 352.514C648.757 340.071 646.519 333.168 641.302 327.385C638.397 324.196 634.831 321.033 634.89 321.683C634.897 321.964 635.016 325.356 635.128 329.244C635.445 338.794 635.802 342.805 636.865 347.482C638.133 353.357 639.136 354.904 644.128 358.927C648.341 362.279 650.25 364.311 650.811 365.982C651.174 367.017 649.979 379.951 648.685 389.449C647.635 397.194 646.103 406.248 645.852 406.34C645.343 406.527 644.947 398.244 645.152 392.434C645.766 375.11 643.937 368.06 636.389 358.344C632.632 353.553 632.262 353.121 632.084 353.542C632.011 353.71 631.688 357.616 631.371 362.191C630.473 374.343 630.711 382.293 632.005 387.911C632.91 391.759 634.56 394.379 638.76 398.55C642.993 402.744 645.68 406.827 645.482 408.669C645.066 412.398 641.216 428.065 638.608 436.84C636.72 443.155 633.306 453.392 633.048 453.485C632.467 453.731 633.576 442.777 634.64 437.577C637.723 422.577 637.591 412.995 634.257 404.368C632.896 400.967 627.356 390.205 626.967 390.311C626.848 390.39 625.864 394.323 624.741 399.087C620.132 419.174 619.63 429.021 622.853 436.132C623.526 437.552 625.382 440.593 627.013 442.867C628.981 445.656 630.414 448.177 631.371 450.626L632.771 454.223L631.444 457.963C626.775 470.886 618.033 488.725 609.429 502.799C607.131 506.503 606.972 506.666 607.454 504.968C608.273 501.804 611.198 495.355 614.903 488.52C617.861 483.087 618.772 481.092 620.324 476.633C623.658 466.887 624.213 462.542 623.269 453.365C622.813 449.068 620.641 437.469 620.251 437.187C619.954 436.976 611.74 450.942 608.478 457.156C604.463 464.813 601.425 473.778 601.28 478.363C601.155 481.914 601.98 486.534 603.664 492.045C605.473 497.866 606.068 500.941 606.213 505.349L606.312 507.791L603.671 511.798C597.635 520.934 589.738 531.209 582.164 539.844L578.922 543.536L580.817 538.882C582.237 535.428 583.511 532.98 586.02 529.094C590.854 521.527 591.303 520.692 594.083 514.191C598.302 504.475 599.167 499.631 598.533 489.523C598.144 483.01 596.711 472.877 596.249 473.044C595.991 473.136 587.407 485.68 584.515 490.168C581.636 494.615 575.97 506.767 575.105 510.232C573.851 515.399 574.002 519.095 575.726 526.788C577.562 535.111 577.997 537.961 577.925 541.882L577.892 544.726L574.075 548.772C567.677 555.492 561.146 561.622 552.766 568.851C546.447 574.303 544.81 575.5 545.146 574.529C545.8 572.519 550.231 565.489 552.562 562.801C558.386 556.112 564.157 547.286 567.076 540.664C570.291 533.261 571.288 523.659 570.377 508.769C570.206 505.891 569.928 504.365 569.664 504.673C569.42 504.939 568.053 506.498 566.554 508.178C554.285 522.167 549.742 528.283 546.025 536.044C544.196 539.862 543.271 542.18 542.961 543.779C542.182 547.744 542.3 553.013 543.278 559.949C544.182 566.169 544.301 572.215 543.601 575.409C543.317 576.858 542.69 577.403 533.749 583.953C524.856 590.483 508.826 600.886 508.682 600.231C508.581 599.772 512.453 594.22 514.482 591.923C515.565 590.715 518.327 587.62 520.651 585.04C527.609 577.231 533.378 567.909 535.181 561.588C536.902 555.651 537.956 543.939 537.678 533.808L537.61 530.505L536.72 531.466C536.25 531.956 533.36 534.849 530.333 537.863C519.321 548.776 513.351 556.19 509.613 563.604C506.507 569.762 505.793 574.766 506.676 584.393C507.437 592.719 507.443 593.991 506.934 597.929L506.475 601.849L501.285 604.8C492.515 609.764 480.535 615.79 470.797 620.114L469.569 620.668L470.497 619.126C472.513 615.772 476.61 610.988 481.005 606.803C488.807 599.325 493.711 593.078 497.496 585.753C499.714 581.44 500.696 577.896 501.794 570.133C502.609 564.207 503.398 551.423 502.955 551.16C502.66 550.948 491.39 561.07 486.591 565.791C482.469 569.841 477.159 576.128 475.079 579.436C474.136 580.912 472.689 583.846 471.801 586.188C469.822 591.333 469.47 594.612 469.972 604.13C470.228 609.665 470.151 612.313 469.548 616.073L468.771 620.922L466.635 621.983C463.267 623.706 433.155 634.599 424.246 637.312C408.958 641.957 407.519 642.304 403.98 642.248C399.132 642.136 397.351 642.678 396.547 644.53C395.176 647.683 396.137 657.034 398.085 659.369C399.098 660.593 401.277 660.225 406.696 657.933C409.371 656.818 413.174 655.575 415.134 655.215C425.593 653.284 453.159 643.211 470.98 634.81L475.266 632.754L476.448 633.987C479.546 637.038 481.939 640.52 484.942 646.26C489.015 653.981 490.748 656.218 495.015 658.948C499.02 661.49 503.293 662.625 511.045 663.165C516.137 663.506 519.731 663.438 531.283 662.842L536.025 662.603L534.837 660.592C532.876 657.199 526.874 648.977 524.275 646.064C520.771 642.171 516.381 639.132 512.235 637.703C506.215 635.646 499.047 634.752 490.645 635.014C487.251 635.117 479.769 634.053 476.933 633.068C475.59 632.601 474.767 633.113 486.342 627.128C491.234 624.568 497.43 621.179 500.139 619.591C503.227 617.723 505.307 616.788 505.667 617.047C507.781 618.508 511.029 622.99 514.217 628.697C519.405 638.101 522.044 640.822 527.682 642.77C534.929 645.265 541.785 645.495 560.505 643.917C563.134 643.705 565.326 643.402 565.412 643.299C565.577 642.921 562.5 638.341 559.132 633.939C550.885 623.277 545.457 619.659 535.109 617.975C530.503 617.209 528.224 617.119 521.92 617.396C519.028 617.528 515.87 617.58 514.865 617.522C513.223 617.447 506.969 616.326 506.576 616.043C506.477 615.973 507.579 615.219 509.018 614.376C510.477 613.49 515.423 610.309 519.981 607.233L528.319 601.684L532.137 604.754C534.945 606.989 536.581 608.659 538.249 610.849C539.534 612.541 541.673 615.017 543.02 616.369C548.468 621.713 555.282 623.233 568.053 621.911C572.451 621.479 588.668 618.548 588.595 618.22C588.463 617.63 583.062 612.375 579.344 609.267C573.481 604.288 569.492 602.092 564.54 601.133C558.075 599.805 551.849 599.915 542.175 601.418C540.148 601.73 536.25 601.912 533.468 601.792C529.229 601.565 528.563 601.418 529.354 600.882C532.019 599.097 541.858 591.48 546.817 587.371L552.476 582.657L556.147 585.568C559.053 587.872 560.413 589.289 562.678 592.29C564.916 595.332 566.296 596.707 569.202 599.013C572.55 601.688 573.137 602.003 575.983 602.666C582.395 604.228 590.636 603.74 604.952 600.935C610.076 599.92 612.75 599.193 612.578 598.795C612.426 598.462 610.822 596.708 609.013 594.855C604.813 590.576 595.212 583.523 592.405 582.668C586.265 580.798 577.495 580.522 569.268 581.959C563.629 582.879 560.367 583.076 556.068 582.695L552.885 582.401L558.161 577.685C561.054 575.073 565.048 571.318 567.029 569.32L570.648 565.737L572.477 566.383C574.828 567.19 576.895 568.561 583.095 573.561C587.81 577.331 588.417 577.712 590.86 578.415C597.259 580.193 606.523 577.954 624.147 570.296L628.551 568.376L624.847 565.722C618.825 561.401 612.294 558.15 608.174 557.456C605.968 557.089 600.64 557.295 597.147 557.931C595.628 558.165 590.722 559.668 586.271 561.218C578.334 563.966 570.773 565.658 571.988 564.436C575.508 560.781 582.705 552.815 586.37 548.544L590.92 543.205L593.119 543.786C594.644 544.22 597.193 545.664 601.657 548.534C608.775 553.2 610.967 553.997 615.444 553.677C618.336 553.437 626.623 550.667 631.378 548.335C636.515 545.791 648.077 539.244 648.004 538.916C647.886 538.5 641.269 534.963 637.875 533.47C634.441 531.996 629.423 530.603 627.092 530.531C622.047 530.278 613.991 532.61 605.942 536.709C600.659 539.376 592.148 542.651 591.989 542.037C591.976 541.864 592.987 540.436 594.301 538.788C597.133 535.137 601.102 529.655 605.236 523.514C606.985 520.964 608.623 518.882 608.887 518.854C610.538 518.714 615.741 520.572 619.366 522.617C624.319 525.451 626.055 526.093 629.515 526.425C632.896 526.752 640.001 524.236 646.36 520.468C650.837 517.777 664.162 508.465 664.057 508.114C663.951 507.763 656.239 504.766 653.465 503.935C649.543 502.778 644.914 502.162 642.603 502.436C637.023 503.122 628.941 506.703 620.945 512.057C616.388 515.132 608.92 518.49 609.468 517.228C609.653 516.807 610.346 515.597 611.073 514.519C612.902 511.693 619.082 500.841 621.242 496.655C622.285 494.646 623.355 492.876 623.685 492.722C623.956 492.588 624.094 492.359 623.936 492.241C623.771 492.124 625.091 488.988 626.887 485.147C631.952 474.382 636.105 463.842 639.968 451.885C643.039 442.555 642.623 443.307 645.046 442.177C646.274 441.623 648.916 440.98 650.923 440.71C657.804 439.798 660.57 438.083 664.803 432.186C667.735 428.11 670.231 423.555 674.417 414.808L677.831 407.655L675.989 408.042C672.905 408.703 665.417 411.714 663.146 413.177C659.316 415.67 654.779 421.571 650.619 429.457C647.087 436.194 643.336 442.163 643.481 440.835C643.534 440.32 644.359 436.94 645.31 433.373C646.228 429.782 647.522 424.531 648.143 421.721C649.266 416.568 649.279 416.526 650.527 415.435C651.233 414.894 654.093 413.466 656.866 412.313C664.242 409.273 666.388 407.006 670.356 397.879C672.436 393.085 677.805 377.075 677.653 376.139C677.56 375.572 673.05 377.744 669.683 379.962C662.551 384.612 659.652 389.208 652.561 407.403C649.418 415.521 649.517 415.98 651.557 403.095C652.118 399.527 652.818 394.457 653.148 391.824L653.723 386.941L655.717 385.118C656.813 384.082 659.137 382.493 660.874 381.646C667.273 378.398 669.755 375.05 672.694 365.518C674.292 360.264 677.871 345.012 677.514 344.753C677.184 344.519 669.452 350.448 667.524 352.427C663.463 356.632 660.623 362.87 657.724 373.978C656.318 379.481 654.225 385.978 653.967 385.791C653.901 385.744 653.98 384.368 654.139 382.717C654.317 381.132 654.74 375.42 655.063 370.027L655.677 360.316L657.256 358.36C658.101 357.309 660.3 355.411 662.142 354.139C663.945 352.843 666.025 351.132 666.758 350.334C668.402 348.425 670.502 343.588 671.637 338.997C672.555 335.406 675.058 319.379 674.873 318.42C674.728 317.764 667.973 324.01 665.813 326.709C664.512 328.422 663.773 329.824 662.168 334.021C660.24 339.04 659.811 340.718 658.121 350.151C657.718 352.457 657.024 355.435 656.608 356.79L655.796 359.244L655.849 354.978C655.849 352.606 655.829 346.524 655.757 341.452C655.598 330.747 655.466 331.256 660.755 326.391C663.641 323.713 663.852 323.424 665.391 319.783C666.619 316.858 667.114 315.118 667.451 312.378C668.032 308.164 668.857 294.411 668.567 294.2C668.204 293.942 664.037 298.786 661.983 301.836C660.26 304.409 659.844 305.377 659.019 308.261C657.975 312.038 656.991 318.062 656.906 321.421C656.807 323.83 655.935 330.378 655.704 330.213C655.638 330.166 655.426 327.2 655.248 323.652C655.057 320.147 654.575 313.844 654.231 309.684C653.842 305.542 653.637 301.972 653.743 301.72C654.073 300.962 655.902 299.625 658.794 298.004C662.241 296.007 663.535 294.401 665.153 289.988C666.474 286.464 669.32 274.879 668.956 274.62C668.692 274.432 663.779 278.242 662.155 279.893C660.035 282.011 658.121 286.212 656.424 292.496C655.578 295.53 654.588 298.793 654.225 299.634L653.545 301.191L652.891 295.588C652.528 292.462 652.026 288.292 651.775 286.293C651.524 284.295 651.26 281.454 651.207 279.985L651.108 277.262L652.99 276.575C654.066 276.184 656.034 275.61 657.368 275.3C659.23 274.87 660.26 274.283 661.515 272.869C663.159 271.068 666.843 264.663 668.798 260.163L669.788 257.892L666.454 259.034C660.914 261.016 658.959 263.037 654.535 271.338C653.208 273.805 651.887 276.057 651.577 276.276C650.025 277.478 651.966 259.176 654.007 253.301C654.284 252.454 654.542 251.478 654.535 251.09C654.495 249.793 659.303 238.236 661.633 234.06C664.684 228.631 667.788 223.962 668.408 223.911C668.679 223.884 669.676 224.547 670.653 225.467C672.166 226.827 672.648 227.006 674.292 226.974C675.335 226.948 677.448 226.426 679 225.826L681.839 224.721L679.588 223.489C676.636 221.871 675.454 221.737 672.027 222.7C669.504 223.372 668.441 223.439 668.679 222.893C668.719 222.809 670.053 221.119 671.631 219.163C675.163 214.69 680.624 208.95 681.331 208.905C681.628 208.901 682.585 209.367 683.437 209.978C684.943 211.058 685.246 211.055 688.139 210.037L691.262 208.97L690.021 208.078C688.482 206.974 686.838 206.9 684.018 207.748C682.836 208.109 681.905 208.27 681.998 208.06C682.09 207.85 683.497 206.488 685.128 205.009L688.079 202.271L690.073 203.703C691.942 205.042 692.226 205.08 694.808 204.563C696.28 204.24 697.588 203.799 697.68 203.589C697.938 203 695.719 201.576 694.22 201.38C693.5 201.252 691.969 201.42 690.846 201.722C689.697 201.999 688.72 202.179 688.654 202.132C688.588 202.086 690.021 200.854 691.836 199.451L695.118 196.84L696.558 197.873C697.766 198.742 698.334 198.818 699.879 198.326L701.715 197.765L700.553 196.878C699.767 196.314 698.77 196.148 697.383 196.369L695.31 196.699L696.696 195.768C697.443 195.251 698.968 194.197 700.057 193.377C701.986 192.002 702.071 192.007 703.392 193.012C704.356 193.758 705.069 193.994 705.683 193.772C706.502 193.474 706.515 193.432 705.472 192.681C704.878 192.258 704.039 191.928 703.584 191.88C703.148 191.898 702.818 191.77 702.87 191.644C702.93 191.518 704.594 190.451 706.548 189.315C709.685 187.429 710.226 187.267 711.111 187.901C711.666 188.3 712.749 188.579 713.475 188.492L714.822 188.355L713.838 187.651C713.284 187.252 712.405 187.006 711.897 187.084Z" fill="#d4b42d" fill-rule="nonzero" opacity="1" stroke="none" vectornator:layerName="path"/>
<path d="M669.769 208.205C668.336 212.477 668.217 213.936 669.267 216.564C669.742 217.842 670.244 218.864 670.376 218.85C670.601 218.734 671.921 214.11 672.232 212.403C672.443 211.23 671.789 207.396 671.195 206.197C670.759 205.33 670.686 205.39 669.769 208.205Z" fill="#d4b42d" fill-rule="nonzero" opacity="1" stroke="none" vectornator:layerName="path"/>
<path d="M682.321 216.165C680.941 215.89 679.139 215.978 676.319 216.546L675.15 216.758L676.854 218.367C678.808 220.207 680.525 220.501 684.137 219.505L686.356 218.946L685.451 217.965C684.282 216.689 684.038 216.567 682.321 216.165Z" fill="#d4b42d" fill-rule="nonzero" opacity="1" stroke="none" vectornator:layerName="path"/>
<path d="M672.654 232.289C671.168 231.943 668.963 232.288 665.344 233.392L662.479 234.259L664.836 235.949C666.11 236.866 667.728 237.694 668.461 237.779C669.947 238.018 674.338 236.808 676.141 235.728L677.323 234.978L675.573 233.776C674.622 233.095 673.321 232.436 672.654 232.289Z" fill="#d4b42d" fill-rule="nonzero" opacity="1" stroke="none" vectornator:layerName="path"/>
<path d="M671.36 244.655C667.286 244.051 664.222 245.165 659.877 248.943C658.041 250.496 656.159 251.96 655.717 252.192C654.588 252.708 654.852 253.284 656.278 253.368C656.912 253.384 658.048 253.645 658.741 253.923C660.828 254.756 662.981 254.645 664.829 253.654C666.553 252.742 674.536 245.834 674.457 245.333C674.397 245.179 673.011 244.903 671.36 244.655Z" fill="#d4b42d" fill-rule="nonzero" opacity="1" stroke="none" vectornator:layerName="path"/>
<path d="M673.691 442.733C661.356 442.657 655.862 445.613 645.475 457.857C642.9 460.919 639.46 464.577 637.888 465.929C636.29 467.324 635.056 468.588 635.069 468.761C635.128 468.916 636.271 468.854 637.624 468.609C639.024 468.347 642.108 468.463 644.551 468.778C651.128 469.747 653.63 469.332 657.5 466.648C660.135 464.84 664.618 460.553 667.755 456.79C670.086 453.994 677.943 443.91 678.168 443.405C678.406 442.858 677.772 442.735 673.691 442.733Z" fill="#d4b42d" fill-rule="nonzero" opacity="1" stroke="none" vectornator:layerName="path"/>
<path d="M667.913 475.884C659.824 474.051 656.278 474.102 651.128 475.979C646.208 477.804 641.712 480.645 635.346 485.901C632.995 487.854 629.515 490.324 627.634 491.4C625.765 492.433 624.273 493.403 624.299 493.534C624.312 493.707 625.712 493.94 627.422 494.062C629.113 494.226 631.82 494.902 633.543 495.693C642.101 499.408 646.268 498.919 654.621 493.434C657.698 491.394 673.242 478.439 673.631 477.556C673.797 477.178 673.414 477.069 667.913 475.884Z" fill="#d4b42d" fill-rule="nonzero" opacity="1" stroke="none" vectornator:layerName="path"/>
</g>
<g opacity="1" vectornator:layerName="g">
<path d="M457.7 300.851L445.5 319.051C443.9 317.985 442.434 317.118 441.1 316.451L453.5 297.851L457.7 300.851ZM461.7 443.251L457.3 446.051L441.1 421.651C443.234 420.585 444.7 419.718 445.5 419.051L461.7 443.251ZM443.1 443.051C428.567 452.785 412.367 457.651 394.5 457.651C370.1 457.651 349.234 448.985 331.9 431.651C314.567 414.318 305.9 393.518 305.9 369.251C305.9 344.851 314.567 323.951 331.9 306.551C349.234 289.151 370.1 280.451 394.5 280.451C411.967 280.451 428.167 285.318 443.1 295.051L434.9 307.851C422.9 299.851 409.434 295.851 394.5 295.851C374.234 295.851 356.934 303.018 342.6 317.351C328.267 331.685 321.1 348.985 321.1 369.251C321.1 389.385 328.3 406.618 342.7 420.951C357.1 435.285 374.367 442.451 394.5 442.451C409.167 442.451 422.634 438.451 434.9 430.451L443.1 443.051ZM402.1 312.251C386.234 313.185 372.8 319.418 361.8 330.951C350.8 342.485 345.3 356.251 345.3 372.251C345.3 392.251 353.5 408.318 369.9 420.451C378.434 425.518 387.7 428.318 397.7 428.851L394.5 428.851C383.7 428.851 373.5 426.051 363.9 420.451C354.967 415.251 347.867 408.085 342.6 398.951C337.334 389.818 334.7 379.918 334.7 369.251C334.7 352.718 340.567 338.585 352.3 326.851C364.034 315.118 378.1 309.251 394.5 309.251C395.3 309.251 397.834 310.251 402.1 312.251Z" fill="#d4b42d" fill-rule="nonzero" opacity="1" stroke="none" vectornator:layerName="path"/>
<path d="M604.1 354.651C604.1 376.118 597 394.885 582.8 410.951C568.6 427.018 551.034 436.385 530.1 439.051L530.1 455.251L523.9 455.251L523.9 439.051C544.834 436.385 562.4 427.018 576.6 410.951C590.8 394.885 597.9 376.118 597.9 354.651C597.9 339.718 594.367 325.918 587.3 313.251C580.234 300.585 570.7 290.451 558.7 282.851L564.9 282.851C576.9 290.451 586.434 300.585 593.5 313.251C600.567 325.918 604.1 339.718 604.1 354.651ZM584.5 354.651C584.5 374.385 577.467 391.251 563.4 405.251C549.334 419.251 532.434 426.251 512.7 426.251C511.5 426.251 510.634 426.185 510.1 426.051L510.1 455.251L495.1 455.251L495.1 282.851L512.7 282.851C532.434 282.851 549.334 289.885 563.4 303.951C577.467 318.018 584.5 334.918 584.5 354.651ZM569.5 354.651C569.5 339.051 563.934 325.685 552.8 314.551C541.667 303.418 528.3 297.851 512.7 297.851L510.5 297.851L510.3 411.051L512.7 411.051C528.3 411.051 541.667 405.518 552.8 394.451C563.934 383.385 569.5 370.118 569.5 354.651ZM537.5 318.851L530.3 393.851C529.634 394.118 528.6 394.485 527.2 394.951C525.8 395.418 524.767 395.785 524.1 396.051L524.3 313.251C527.234 314.051 531.634 315.918 537.5 318.851Z" fill="#d4b42d" fill-rule="nonzero" opacity="1" stroke="none" vectornator:layerName="path"/>
</g>
</g>
</g>
</svg>
