<?xml version="1.0" encoding="UTF-8" standalone="no"?>
<!DOCTYPE svg PUBLIC "-//W3C//DTD SVG 1.1//EN" "http://www.w3.org/Graphics/SVG/1.1/DTD/svg11.dtd">
<!-- Created with Vectornator (http://vectornator.io/) -->
<svg height="100%" stroke-miterlimit="10" style="fill-rule:nonzero;clip-rule:evenodd;stroke-linecap:round;stroke-linejoin:round;" version="1.1" viewBox="0 0 1280 964" width="100%" xml:space="preserve" xmlns="http://www.w3.org/2000/svg" xmlns:vectornator="http://vectornator.io" xmlns:xlink="http://www.w3.org/1999/xlink">
<defs/>
<g id="Sin-título" vectornator:layerName="Sin título">
<g opacity="1" vectornator:layerName="g">
<path d="M1160.36 255.059C1159.82 255.114 1159.36 255 1159.31 254.804C1159.27 254.607 1158.06 255.119 1156.61 255.896C1155.17 256.739 1153.92 257.334 1153.85 257.287C1153.79 257.24 1154.16 256.788 1154.6 256.274C1155.13 255.723 1155.61 254.737 1155.76 253.905L1156.03 252.497L1154.75 253.739C1153.75 254.672 1153.4 255.256 1153.25 256.41C1153.07 257.716 1152.76 258.042 1149.94 259.882C1145.83 262.51 1145.59 262.561 1146.66 260.898C1147.51 259.525 1147.99 256.944 1147.47 256.568C1147.34 256.474 1146.74 257.15 1146.21 258.089C1145.44 259.36 1145.2 260.122 1145.26 261.268C1145.36 262.719 1145.28 262.78 1142.08 265.115C1140.27 266.411 1138.73 267.399 1138.66 267.351C1138.59 267.304 1139.04 266.295 1139.7 265.169C1140.55 263.58 1140.86 262.693 1140.87 261.271C1140.96 258.515 1140.5 258.293 1139.19 260.503C1138.12 262.381 1137.57 264.915 1138.16 265.338C1138.32 265.456 1138.42 266.022 1138.44 266.583C1138.42 267.402 1137.79 268.163 1135.34 270.154C1133.66 271.543 1132.2 272.644 1132.1 272.573C1132 272.503 1132.4 271.578 1133.01 270.578C1133.6 269.513 1134.24 268.041 1134.45 267.256C1134.86 265.726 1134.56 262.259 1134.05 262.445C1133.87 262.477 1133.12 263.706 1132.38 265.107C1131.03 267.616 1130.99 267.7 1131.4 270.312C1131.75 272.876 1131.73 273.027 1130.76 273.982C1127.52 277.179 1126.22 278.288 1126.02 278.148C1125.86 278.03 1126.26 276.824 1126.86 275.436C1128.12 272.534 1128.44 270.224 1127.86 267.991L1127.43 266.413L1126.41 268.164C1124.73 270.934 1124.36 273.09 1124.97 276.124L1125.51 278.829L1122.16 282.493C1120.29 284.519 1117.44 287.931 1115.78 290.162C1114.11 292.329 1112.66 294.164 1112.54 294.243C1112.29 294.336 1112.52 292.02 1113.01 289.505C1113.73 286.096 1113.47 283.428 1112.19 280.744L1111 278.237L1110.52 280.042C1109.55 283.651 1109.01 287.847 1109.35 289.246C1109.57 290.015 1110.18 291.387 1110.71 292.324C1112.34 294.92 1112.32 294.855 1110.2 298.354C1109.13 300.123 1107.68 302.562 1106.98 303.879C1106.26 305.132 1105.67 305.916 1105.58 305.63C1105.54 305.326 1105.7 303.459 1105.95 301.425C1106.53 296.435 1106.2 293.613 1104.69 290.764C1104 289.494 1103.27 288.308 1103.04 288.143C1102.22 287.556 1101.02 297.837 1101.61 300.243C1101.78 301.03 1102.71 302.745 1103.65 304.137L1105.36 306.631L1103.18 312.239C1101.99 315.361 1100.7 319.124 1100.31 320.61C1099.91 322.14 1099.49 323.388 1099.39 323.425C1099.09 323.537 1098.76 319.83 1098.84 317.182C1098.97 313.416 1097.81 308.28 1096.23 305.988C1094.7 303.677 1092.77 301.515 1092.58 301.936C1092.51 302.104 1092.39 304.448 1092.36 307.184C1092.2 315.067 1093.41 319.3 1096.62 321.601C1097.11 321.954 1097.92 322.864 1098.36 323.623C1099.09 324.809 1099.12 325.328 1098.64 327.521C1098.08 329.99 1097.53 334.12 1097.18 338.176L1097.05 340.173L1096.41 338.884C1096.06 338.196 1095.12 335.531 1094.33 332.983C1093.61 330.418 1092.37 327.219 1091.63 325.86C1090.47 323.699 1090 323.198 1086.94 321.056C1085.1 319.741 1083.34 318.753 1083.03 318.865C1082.37 319.106 1084.72 328.625 1086.38 332.41C1087.86 335.731 1089.27 337.129 1092.27 338.124C1093.55 338.544 1095.15 339.307 1095.8 339.776C1096.92 340.574 1097.01 340.86 1096.97 343.209C1096.91 346.418 1097.36 354.467 1097.88 359.198C1098.12 361.131 1098.21 362.797 1098.11 362.834C1097.81 362.946 1096.27 358.974 1095.44 355.841C1094.34 351.852 1093.02 348.541 1091.48 345.776C1090.44 343.925 1089.68 343.105 1087.39 341.46C1084.11 339.112 1081.36 337.636 1081.15 338.14C1081.07 338.308 1081.85 341.567 1082.82 345.355C1085.8 356.376 1087.95 359.737 1093 361.155C1095.51 361.905 1098.26 363.771 1098.47 364.968C1098.74 366.214 1099.73 380.655 1099.96 386.621C1100.12 389.433 1100.24 392.503 1100.26 393.453C1100.35 395.118 1100.33 395.16 1100.02 394.107C1099.81 393.512 1099.33 390.746 1098.93 387.919C1097.61 378.914 1096.03 373.645 1093.6 370.139C1092.13 367.983 1084.72 361.123 1084.11 361.345C1083.55 361.549 1085.15 375.164 1086.41 380.759C1087.06 383.708 1088.1 387.047 1088.78 388.251C1089.89 390.322 1090.28 390.711 1095.1 394.163C1098.08 396.301 1100.29 398.112 1100.38 398.506C1100.82 400.753 1100.13 432.584 1099.59 432.747C1099.23 432.876 1098.22 425.313 1097.96 420.489C1097.22 408.046 1094.99 401.143 1089.77 395.361C1086.86 392.171 1083.3 389.008 1083.36 389.658C1083.36 389.94 1083.48 393.332 1083.6 397.22C1083.91 406.77 1084.27 410.78 1085.33 415.457C1086.6 421.332 1087.6 422.879 1092.6 426.902C1096.81 430.254 1098.72 432.286 1099.28 433.957C1099.64 434.993 1098.45 447.926 1097.15 457.424C1096.1 465.17 1094.57 474.223 1094.32 474.316C1093.81 474.502 1093.41 466.219 1093.62 460.409C1094.23 443.086 1092.4 436.035 1084.86 426.319C1081.1 421.528 1080.73 421.096 1080.55 421.517C1080.48 421.685 1080.16 425.591 1079.84 430.166C1078.94 442.318 1079.18 450.269 1080.47 455.886C1081.38 459.735 1083.03 462.354 1087.23 466.525C1091.46 470.719 1094.15 474.802 1093.95 476.645C1093.53 480.373 1089.68 496.041 1087.08 504.815C1085.19 511.131 1081.77 521.367 1081.52 521.46C1080.93 521.707 1082.04 510.753 1083.11 505.552C1086.19 490.552 1086.06 480.97 1082.72 472.343C1081.36 468.942 1075.82 458.18 1075.43 458.287C1075.32 458.366 1074.33 462.298 1073.21 467.063C1068.6 487.149 1068.1 496.997 1071.32 504.108C1071.99 505.527 1073.85 508.568 1075.48 510.842C1077.45 513.631 1078.88 516.152 1079.84 518.601L1081.24 522.199L1079.91 525.939C1075.24 538.862 1066.5 556.701 1057.9 570.774C1055.6 574.478 1055.44 574.641 1055.92 572.944C1056.74 569.779 1059.67 563.331 1063.37 556.496C1066.33 551.063 1067.24 549.067 1068.79 544.608C1072.13 534.862 1072.68 530.518 1071.74 521.34C1071.28 517.044 1069.11 505.444 1068.72 505.163C1068.42 504.951 1060.21 518.917 1056.94 525.132C1052.93 532.789 1049.89 541.753 1049.75 546.338C1049.62 549.889 1050.45 554.509 1052.13 560.021C1053.94 565.841 1054.53 568.917 1054.68 573.324L1054.78 575.767L1052.14 579.774C1046.1 588.909 1038.21 599.185 1030.63 607.82L1027.39 611.512L1029.28 606.857C1030.7 603.404 1031.98 600.955 1034.49 597.069C1039.32 589.503 1039.77 588.667 1042.55 582.167C1046.77 572.451 1047.63 567.606 1047 557.499C1046.61 550.985 1045.18 540.852 1044.72 541.019C1044.46 541.112 1035.87 553.655 1032.98 558.144C1030.1 562.59 1024.44 574.743 1023.57 578.207C1022.32 583.374 1022.47 587.071 1024.19 594.763C1026.03 603.086 1026.46 605.937 1026.39 609.857L1026.36 612.702L1022.54 616.747C1016.14 623.467 1009.61 629.598 1001.23 636.826C994.915 642.278 993.277 643.476 993.614 642.504C994.267 640.494 998.698 633.464 1001.03 630.776C1006.85 624.087 1012.62 615.261 1015.54 608.639C1018.76 601.237 1019.76 591.634 1018.84 576.744C1018.67 573.867 1018.4 572.341 1018.13 572.648C1017.89 572.914 1016.52 574.473 1015.02 576.154C1002.75 590.142 998.21 596.259 994.492 604.019C992.663 607.837 991.738 610.155 991.428 611.754C990.649 615.719 990.768 620.988 991.745 627.925C992.65 634.145 992.768 640.19 992.069 643.384C991.785 644.834 991.157 645.379 982.216 651.928C973.323 658.458 957.293 668.862 957.149 668.207C957.048 667.747 960.921 662.196 962.949 659.899C964.033 658.69 966.795 655.596 969.118 653.015C976.076 645.207 981.845 635.884 983.648 629.563C985.37 623.626 986.423 611.914 986.145 601.783L986.077 598.48L985.187 599.442C984.717 599.932 981.828 602.824 978.8 605.838C967.788 616.752 961.818 624.165 958.08 631.58C954.974 637.738 954.26 642.742 955.143 652.368C955.905 660.694 955.91 661.966 955.401 665.904L954.943 669.824L949.753 672.775C940.982 677.739 929.002 683.765 919.264 688.09L918.036 688.643L918.964 687.101C920.98 683.748 925.077 678.964 929.472 674.779C937.274 667.3 942.179 661.053 945.964 653.728C948.182 649.415 949.164 645.872 950.262 638.108C951.077 632.183 951.866 619.398 951.422 619.135C951.127 618.924 939.858 629.045 935.058 633.767C930.936 637.817 925.626 644.104 923.546 647.411C922.604 648.887 921.157 651.821 920.268 654.163C918.289 659.308 917.938 662.587 918.439 672.105C918.696 677.641 918.618 680.288 918.015 684.048L917.238 688.898L915.102 689.958C911.735 691.681 881.622 702.574 872.714 705.287C857.425 709.932 855.986 710.279 852.447 710.223C847.6 710.111 845.818 710.654 845.014 712.505C843.643 715.659 844.604 725.01 846.552 727.345C847.565 728.568 849.744 728.2 855.163 725.908C857.838 724.793 861.641 723.55 863.601 723.191C874.06 721.259 901.626 711.186 919.447 702.786L923.733 700.73L924.915 701.963C928.013 705.013 930.407 708.495 933.409 714.235C937.482 721.957 939.215 724.193 943.482 726.923C947.488 729.465 951.761 730.6 959.513 731.141C964.604 731.482 968.198 731.413 979.75 730.818L984.492 730.578L983.305 728.567C981.344 725.174 975.341 716.952 972.742 714.039C969.239 710.147 964.848 707.107 960.703 705.678C954.683 703.622 947.514 702.727 939.112 702.989C935.718 703.092 928.236 702.028 925.401 701.043C924.058 700.576 923.234 701.088 934.81 695.104C939.701 692.544 945.898 689.155 948.606 687.567C951.694 685.699 953.775 684.764 954.134 685.023C956.248 686.483 959.496 690.965 962.684 696.672C967.872 706.077 970.512 708.798 976.15 710.745C983.396 713.241 990.253 713.47 1008.97 711.893C1011.6 711.68 1013.79 711.378 1013.88 711.274C1014.04 710.897 1010.97 706.317 1007.6 701.914C999.352 691.253 993.924 687.635 983.576 685.951C978.97 685.185 976.691 685.094 970.387 685.371C967.495 685.504 964.338 685.556 963.333 685.497C961.691 685.422 955.436 684.301 955.043 684.019C954.945 683.948 956.046 683.194 957.486 682.351C958.944 681.466 963.891 678.284 968.448 675.209L976.786 669.66L980.605 672.729C983.412 674.964 985.048 676.635 986.716 678.824C988.001 680.517 990.14 682.993 991.487 684.344C996.935 689.688 1003.75 691.208 1016.52 689.886C1020.92 689.455 1037.14 686.523 1037.06 686.196C1036.93 685.605 1031.53 680.35 1027.81 677.243C1021.95 672.263 1017.96 670.067 1013.01 669.109C1006.54 667.781 1000.32 667.89 990.642 669.393C988.615 669.706 984.717 669.887 981.935 669.767C977.697 669.54 977.03 669.393 977.821 668.857C980.487 667.073 990.325 659.455 995.284 655.346L1000.94 650.632L1004.61 653.543C1007.52 655.848 1008.88 657.265 1011.15 660.266C1013.38 663.308 1014.76 664.682 1017.67 666.988C1021.02 669.664 1021.6 669.979 1024.45 670.641C1030.86 672.204 1039.1 671.716 1053.42 668.91C1058.54 667.895 1061.22 667.168 1061.05 666.77C1060.89 666.438 1059.29 664.683 1057.48 662.831C1053.28 658.551 1043.68 651.498 1040.87 650.643C1034.73 648.774 1025.96 648.497 1017.74 649.934C1012.1 650.855 1008.83 651.051 1004.54 650.67L1001.35 650.376L1006.63 645.66C1009.52 643.048 1013.52 639.293 1015.5 637.296L1019.12 633.712L1020.94 634.359C1023.3 635.165 1025.36 636.537 1031.56 641.536C1036.28 645.307 1036.88 645.687 1039.33 646.391C1045.73 648.168 1054.99 645.929 1072.61 638.272L1077.02 636.351L1073.31 633.698C1067.29 629.377 1060.76 626.126 1056.64 625.432C1054.44 625.065 1049.11 625.271 1045.61 625.906C1044.1 626.141 1039.19 627.643 1034.74 629.194C1026.8 631.942 1019.24 633.633 1020.46 632.411C1023.98 628.757 1031.17 620.791 1034.84 616.519L1039.39 611.18L1041.59 611.761C1043.11 612.195 1045.66 613.639 1050.12 616.51C1057.24 621.175 1059.43 621.972 1063.91 621.652C1066.8 621.412 1075.09 618.642 1079.84 616.311C1084.98 613.766 1096.54 607.219 1096.47 606.892C1096.35 606.475 1089.74 602.938 1086.34 601.446C1082.91 599.972 1077.89 598.579 1075.56 598.506C1070.51 598.253 1062.46 600.585 1054.41 604.684C1049.13 607.351 1040.62 610.626 1040.46 610.013C1040.44 609.84 1041.45 608.411 1042.77 606.763C1045.6 603.112 1049.57 597.63 1053.7 591.489C1055.45 588.939 1057.09 586.857 1057.35 586.83C1059.01 586.689 1064.21 588.547 1067.83 590.592C1072.79 593.427 1074.52 594.068 1077.98 594.4C1081.36 594.728 1088.47 592.211 1094.83 588.444C1099.3 585.752 1112.63 576.44 1112.52 576.089C1112.42 575.738 1104.71 572.741 1101.93 571.91C1098.01 570.753 1093.38 570.137 1091.07 570.412C1085.49 571.098 1077.41 574.678 1069.41 580.032C1064.86 583.107 1057.39 586.465 1057.94 585.204C1058.12 584.783 1058.81 583.572 1059.54 582.494C1061.37 579.669 1067.55 568.817 1069.71 564.631C1070.75 562.622 1071.82 560.851 1072.15 560.698C1072.42 560.563 1072.56 560.334 1072.4 560.216C1072.24 560.1 1073.56 556.964 1075.35 553.123C1080.42 542.357 1084.57 531.818 1088.44 519.86C1091.51 510.53 1091.09 511.283 1093.51 510.152C1094.74 509.599 1097.38 508.956 1099.39 508.685C1106.27 507.773 1109.04 506.059 1113.27 500.161C1116.2 496.085 1118.7 491.531 1122.88 482.783L1126.3 475.63L1124.46 476.017C1121.37 476.678 1113.88 479.689 1111.61 481.152C1107.78 483.645 1103.25 489.546 1099.09 497.432C1095.55 504.169 1091.8 510.138 1091.95 508.81C1092 508.295 1092.83 504.915 1093.78 501.348C1094.7 497.757 1095.99 492.507 1096.61 489.696C1097.73 484.544 1097.75 484.502 1098.99 483.41C1099.7 482.869 1102.56 481.441 1105.33 480.288C1112.71 477.249 1114.86 474.981 1118.82 465.854C1120.9 461.06 1126.27 445.05 1126.12 444.114C1126.03 443.548 1121.52 445.72 1118.15 447.938C1111.02 452.587 1108.12 457.183 1101.03 475.378C1097.88 483.496 1097.98 483.955 1100.02 471.071C1100.59 467.503 1101.29 462.432 1101.62 459.799L1102.19 454.916L1104.18 453.093C1105.28 452.057 1107.6 450.468 1109.34 449.621C1115.74 446.373 1118.22 443.025 1121.16 433.494C1122.76 428.239 1126.34 412.987 1125.98 412.729C1125.65 412.494 1117.92 418.424 1115.99 420.403C1111.93 424.607 1109.09 430.846 1106.19 441.954C1104.79 447.457 1102.69 453.954 1102.43 453.767C1102.37 453.72 1102.45 452.344 1102.61 450.693C1102.78 449.107 1103.21 443.396 1103.53 438.002L1104.14 428.292L1105.72 426.335C1106.57 425.285 1108.77 423.387 1110.61 422.114C1112.41 420.818 1114.49 419.107 1115.22 418.31C1116.87 416.401 1118.97 411.564 1120.1 406.972C1121.02 403.382 1123.53 387.354 1123.34 386.395C1123.19 385.739 1116.44 391.985 1114.28 394.684C1112.98 396.397 1112.24 397.799 1110.64 401.996C1108.71 407.016 1108.28 408.694 1106.59 418.127C1106.19 420.432 1105.49 423.41 1105.08 424.766L1104.26 427.22L1104.32 422.953C1104.32 420.581 1104.3 414.499 1104.22 409.427C1104.07 398.722 1103.93 399.231 1109.22 394.366C1112.11 391.688 1112.32 391.399 1113.86 387.758C1115.09 384.833 1115.58 383.094 1115.92 380.353C1116.5 376.14 1117.32 362.387 1117.03 362.175C1116.67 361.917 1112.5 366.762 1110.45 369.811C1108.73 372.384 1108.31 373.352 1107.49 376.236C1106.44 380.014 1105.46 386.037 1105.37 389.396C1105.27 391.806 1104.4 398.353 1104.17 398.189C1104.11 398.142 1103.89 395.175 1103.72 391.628C1103.52 388.123 1103.04 381.82 1102.7 377.66C1102.31 373.517 1102.1 369.947 1102.21 369.695C1102.54 368.938 1104.37 367.601 1107.26 365.98C1110.71 363.982 1112 362.377 1113.62 357.964C1114.94 354.44 1117.79 342.854 1117.42 342.596C1117.16 342.408 1112.25 346.217 1110.62 347.869C1108.5 349.987 1106.59 354.188 1104.89 360.472C1104.05 363.505 1103.06 366.768 1102.69 367.61L1102.01 369.166L1101.36 363.563C1100.99 360.437 1100.49 356.267 1100.24 354.268C1099.99 352.27 1099.73 349.43 1099.67 347.96L1099.58 345.237L1101.46 344.55C1102.53 344.16 1104.5 343.585 1105.84 343.275C1107.7 342.845 1108.73 342.258 1109.98 340.845C1111.63 339.043 1115.31 332.638 1117.27 328.138L1118.26 325.867L1114.92 327.009C1109.38 328.992 1107.43 331.012 1103 339.314C1101.68 341.78 1100.35 344.032 1100.04 344.251C1098.49 345.454 1100.43 327.151 1102.47 321.276C1102.75 320.43 1103.01 319.453 1103 319.065C1102.96 317.768 1107.77 306.212 1110.1 302.035C1113.15 296.607 1116.25 291.937 1116.88 291.887C1117.15 291.86 1118.14 292.523 1119.12 293.442C1120.63 294.803 1121.11 294.982 1122.76 294.949C1123.8 294.924 1125.92 294.401 1127.47 293.802L1130.31 292.696L1128.05 291.464C1125.1 289.847 1123.92 289.712 1120.49 290.676C1117.97 291.348 1116.91 291.415 1117.15 290.868C1117.19 290.784 1118.52 289.094 1120.1 287.138C1123.63 282.666 1129.09 276.925 1129.8 276.881C1130.1 276.876 1131.05 277.343 1131.9 277.953C1133.41 279.033 1133.71 279.03 1136.61 278.013L1139.73 276.945L1138.49 276.053C1136.95 274.95 1135.31 274.875 1132.49 275.723C1131.3 276.084 1130.37 276.246 1130.47 276.036C1130.56 275.826 1131.96 274.464 1133.59 272.985L1136.55 270.247L1138.54 271.679C1140.41 273.017 1140.69 273.055 1143.28 272.539C1144.75 272.215 1146.06 271.774 1146.15 271.564C1146.41 270.976 1144.19 269.551 1142.69 269.355C1141.97 269.227 1140.44 269.396 1139.31 269.697C1138.16 269.974 1137.19 270.154 1137.12 270.107C1137.05 270.061 1138.49 268.83 1140.3 267.426L1143.59 264.815L1145.03 265.848C1146.23 266.717 1146.8 266.794 1148.35 266.302L1150.18 265.741L1149.02 264.854C1148.23 264.289 1147.24 264.123 1145.85 264.344L1143.78 264.675L1145.16 263.743C1145.91 263.226 1147.44 262.173 1148.52 261.352C1150.45 259.977 1150.54 259.982 1151.86 260.987C1152.82 261.734 1153.54 261.97 1154.15 261.747C1154.97 261.45 1154.98 261.408 1153.94 260.656C1153.35 260.234 1152.51 259.903 1152.05 259.856C1151.62 259.873 1151.28 259.746 1151.34 259.62C1151.4 259.494 1153.06 258.426 1155.02 257.291C1158.15 255.404 1158.69 255.242 1159.58 255.876C1160.13 256.275 1161.22 256.554 1161.94 256.468L1163.29 256.331L1162.31 255.626C1161.75 255.227 1160.87 254.981 1160.36 255.059Z" fill="#d4b42d" fill-rule="nonzero" opacity="1" stroke="none" vectornator:layerName="path"/>
<path d="M1118.24 276.18C1116.8 280.453 1116.68 281.912 1117.73 284.54C1118.21 285.818 1118.71 286.839 1118.84 286.826C1119.07 286.709 1120.39 282.085 1120.7 280.379C1120.91 279.205 1120.26 275.371 1119.66 274.172C1119.23 273.305 1119.15 273.366 1118.24 276.18Z" fill="#d4b42d" fill-rule="nonzero" opacity="1" stroke="none" vectornator:layerName="path"/>
<path d="M1130.79 284.141C1129.41 283.865 1127.61 283.953 1124.79 284.521L1123.62 284.734L1125.32 286.343C1127.28 288.182 1128.99 288.477 1132.6 287.481L1134.82 286.921L1133.92 285.94C1132.75 284.665 1132.51 284.543 1130.79 284.141Z" fill="#d4b42d" fill-rule="nonzero" opacity="1" stroke="none" vectornator:layerName="path"/>
<path d="M1121.12 300.264C1119.64 299.918 1117.43 300.264 1113.81 301.367L1110.95 302.234L1113.3 303.925C1114.58 304.841 1116.2 305.669 1116.93 305.755C1118.41 305.993 1122.81 304.784 1124.61 303.704L1125.79 302.954L1124.04 301.751C1123.09 301.07 1121.79 300.411 1121.12 300.264Z" fill="#d4b42d" fill-rule="nonzero" opacity="1" stroke="none" vectornator:layerName="path"/>
<path d="M1119.83 312.631C1115.75 312.026 1112.69 313.141 1108.34 316.918C1106.51 318.471 1104.63 319.935 1104.18 320.168C1103.06 320.683 1103.32 321.26 1104.75 321.344C1105.38 321.36 1106.52 321.62 1107.21 321.898C1109.3 322.731 1111.45 322.62 1113.3 321.629C1115.02 320.717 1123 313.809 1122.92 313.309C1122.86 313.154 1121.48 312.879 1119.83 312.631Z" fill="#d4b42d" fill-rule="nonzero" opacity="1" stroke="none" vectornator:layerName="path"/>
<path d="M1122.16 510.708C1109.82 510.633 1104.33 513.588 1093.94 525.832C1091.37 528.894 1087.93 532.553 1086.36 533.905C1084.76 535.3 1083.52 536.564 1083.54 536.737C1083.6 536.891 1084.74 536.829 1086.09 536.585C1087.49 536.322 1090.58 536.439 1093.02 536.754C1099.6 537.722 1102.1 537.307 1105.97 534.623C1108.6 532.816 1113.09 528.528 1116.22 524.765C1118.55 521.969 1126.41 511.885 1126.64 511.38C1126.87 510.833 1126.24 510.71 1122.16 510.708Z" fill="#d4b42d" fill-rule="nonzero" opacity="1" stroke="none" vectornator:layerName="path"/>
<path d="M1116.38 543.86C1108.29 542.026 1104.75 542.078 1099.6 543.954C1094.68 545.779 1090.18 548.62 1083.81 553.876C1081.46 555.83 1077.98 558.3 1076.1 559.376C1074.23 560.409 1072.74 561.378 1072.77 561.509C1072.78 561.682 1074.18 561.915 1075.89 562.037C1077.58 562.201 1080.29 562.877 1082.01 563.668C1090.57 567.383 1094.74 566.894 1103.09 561.41C1106.17 559.369 1121.71 546.415 1122.1 545.531C1122.26 545.153 1121.88 545.044 1116.38 543.86Z" fill="#d4b42d" fill-rule="nonzero" opacity="1" stroke="none" vectornator:layerName="path"/>
</g>
<g opacity="1" vectornator:layerName="g">
<g opacity="1" vectornator:layerName="g">
<path d="M210.017 281.739L197.817 299.939C196.217 298.873 194.75 298.006 193.417 297.339L205.817 278.739L210.017 281.739ZM214.017 424.139L209.617 426.939L193.417 402.539C195.55 401.473 197.017 400.606 197.817 399.939L214.017 424.139ZM195.417 423.939C180.883 433.673 164.683 438.539 146.817 438.539C122.417 438.539 101.55 429.873 84.2168 412.539C66.8834 395.206 58.2168 374.406 58.2168 350.139C58.2168 325.739 66.8834 304.839 84.2168 287.439C101.55 270.039 122.417 261.339 146.817 261.339C164.283 261.339 180.483 266.206 195.417 275.939L187.217 288.739C175.217 280.739 161.75 276.739 146.817 276.739C126.55 276.739 109.25 283.906 94.9168 298.239C80.5834 312.573 73.4168 329.873 73.4168 350.139C73.4168 370.273 80.6168 387.506 95.0168 401.839C109.417 416.173 126.683 423.339 146.817 423.339C161.483 423.339 174.95 419.339 187.217 411.339L195.417 423.939ZM154.417 293.139C138.55 294.073 125.117 300.306 114.117 311.839C103.117 323.373 97.6168 337.139 97.6168 353.139C97.6168 373.139 105.817 389.206 122.217 401.339C130.75 406.406 140.017 409.206 150.017 409.739L146.817 409.739C136.017 409.739 125.817 406.939 116.217 401.339C107.283 396.139 100.183 388.973 94.9168 379.839C89.6501 370.706 87.0168 360.806 87.0168 350.139C87.0168 333.606 92.8834 319.473 104.617 307.739C116.35 296.006 130.417 290.139 146.817 290.139C147.617 290.139 150.15 291.139 154.417 293.139Z" fill="#d4b42d" fill-rule="nonzero" opacity="1" stroke="none" vectornator:layerName="path"/>
<path d="M287.217 263.739L281.217 407.339L275.017 407.339L275.017 263.739L287.217 263.739ZM318.617 436.139L246.417 436.139L246.417 263.739L261.417 263.739L261.417 421.139L318.617 421.139L318.617 436.139ZM337.017 436.339L330.817 436.339L330.817 407.339L337.017 407.339L337.017 436.339Z" fill="#d4b42d" fill-rule="nonzero" opacity="1" stroke="none" vectornator:layerName="path"/>
<path d="M523.017 436.339L517.017 436.339L452.217 263.939L458.417 263.939L523.017 436.339ZM502.417 436.139L486.417 436.139L480.017 418.539L392.017 418.539L385.617 436.139L369.417 436.139L436.017 255.139L502.417 436.139ZM407.617 432.339L406.017 436.339L400.017 436.339L401.617 432.339L407.617 432.339ZM474.217 403.539L436.017 299.339L397.617 403.539L474.217 403.539ZM443.217 358.139L423.017 389.739L417.017 389.739L436.017 338.539L443.217 358.139Z" fill="#d4b42d" fill-rule="nonzero" opacity="1" stroke="none" vectornator:layerName="path"/>
<path d="M635.017 292.539C632.883 292.539 630.817 292.739 628.817 293.139L628.817 263.739L635.017 263.739L635.017 292.539ZM648.017 394.339C648.017 411.273 641.617 425.273 628.817 436.339L622.817 436.339C635.617 425.273 642.017 411.273 642.017 394.339C642.017 379.806 637.217 367.273 627.617 356.739L602.817 329.539C598.15 324.339 595.817 318.606 595.817 312.339C595.817 306.473 597.783 301.706 601.717 298.039C605.65 294.373 610.55 292.539 616.417 292.539L623.017 292.539L623.017 293.339C612.217 296.006 606.817 303.339 606.817 315.339C606.817 320.139 608.817 324.873 612.817 329.539L635.817 356.739C643.95 366.339 648.017 378.873 648.017 394.339ZM628.417 394.339C628.417 405.806 624.317 415.639 616.117 423.839C607.917 432.039 598.083 436.139 586.617 436.139C574.217 436.139 563.817 431.539 555.417 422.339L566.817 412.139C572.15 418.139 578.75 421.139 586.617 421.139C593.95 421.139 600.217 418.506 605.417 413.239C610.617 407.973 613.217 401.673 613.217 394.339C613.217 387.406 610.883 381.339 606.217 376.139L581.417 348.739C571.817 338.073 567.017 325.939 567.017 312.339C567.017 298.606 571.85 287.073 581.517 277.739C591.183 268.406 602.883 263.739 616.617 263.739L616.617 278.739C607.017 278.739 598.85 281.939 592.117 288.339C585.383 294.739 582.017 302.739 582.017 312.339C582.017 322.339 585.483 331.139 592.417 338.739L617.417 365.939C624.75 373.939 628.417 383.406 628.417 394.339Z" fill="#d4b42d" fill-rule="nonzero" opacity="1" stroke="none" vectornator:layerName="path"/>
<path d="M760.017 292.539C757.883 292.539 755.817 292.739 753.817 293.139L753.817 263.739L760.017 263.739L760.017 292.539ZM773.017 394.339C773.017 411.273 766.617 425.273 753.817 436.339L747.817 436.339C760.617 425.273 767.017 411.273 767.017 394.339C767.017 379.806 762.217 367.273 752.617 356.739L727.817 329.539C723.15 324.339 720.817 318.606 720.817 312.339C720.817 306.473 722.783 301.706 726.717 298.039C730.65 294.373 735.55 292.539 741.417 292.539L748.017 292.539L748.017 293.339C737.217 296.006 731.817 303.339 731.817 315.339C731.817 320.139 733.817 324.873 737.817 329.539L760.817 356.739C768.95 366.339 773.017 378.873 773.017 394.339ZM753.417 394.339C753.417 405.806 749.317 415.639 741.117 423.839C732.917 432.039 723.083 436.139 711.617 436.139C699.217 436.139 688.817 431.539 680.417 422.339L691.817 412.139C697.15 418.139 703.75 421.139 711.617 421.139C718.95 421.139 725.217 418.506 730.417 413.239C735.617 407.973 738.217 401.673 738.217 394.339C738.217 387.406 735.883 381.339 731.217 376.139L706.417 348.739C696.817 338.073 692.017 325.939 692.017 312.339C692.017 298.606 696.85 287.073 706.517 277.739C716.183 268.406 727.883 263.739 741.617 263.739L741.617 278.739C732.017 278.739 723.85 281.939 717.117 288.339C710.383 294.739 707.017 302.739 707.017 312.339C707.017 322.339 710.483 331.139 717.417 338.739L742.417 365.939C749.75 373.939 753.417 383.406 753.417 394.339Z" fill="#d4b42d" fill-rule="nonzero" opacity="1" stroke="none" vectornator:layerName="path"/>
<path d="M846.417 263.539L840.417 436.139L834.217 436.139L834.217 263.539L846.417 263.539ZM820.417 436.139L805.417 436.139L805.417 263.539L820.417 263.539L820.417 436.139Z" fill="#d4b42d" fill-rule="nonzero" opacity="1" stroke="none" vectornator:layerName="path"/>
<path d="M1030.62 281.739L1018.42 299.939C1016.82 298.873 1015.35 298.006 1014.02 297.339L1026.42 278.739L1030.62 281.739ZM1034.62 424.139L1030.22 426.939L1014.02 402.539C1016.15 401.473 1017.62 400.606 1018.42 399.939L1034.62 424.139ZM1016.02 423.939C1001.48 433.673 985.283 438.539 967.417 438.539C943.017 438.539 922.15 429.873 904.817 412.539C887.483 395.206 878.817 374.406 878.817 350.139C878.817 325.739 887.483 304.839 904.817 287.439C922.15 270.039 943.017 261.339 967.417 261.339C984.883 261.339 1001.08 266.206 1016.02 275.939L1007.82 288.739C995.817 280.739 982.35 276.739 967.417 276.739C947.15 276.739 929.85 283.906 915.517 298.239C901.183 312.573 894.017 329.873 894.017 350.139C894.017 370.273 901.217 387.506 915.617 401.839C930.017 416.173 947.283 423.339 967.417 423.339C982.083 423.339 995.55 419.339 1007.82 411.339L1016.02 423.939ZM975.017 293.139C959.15 294.073 945.717 300.306 934.717 311.839C923.717 323.373 918.217 337.139 918.217 353.139C918.217 373.139 926.417 389.206 942.817 401.339C951.35 406.406 960.617 409.206 970.617 409.739L967.417 409.739C956.617 409.739 946.417 406.939 936.817 401.339C927.883 396.139 920.783 388.973 915.517 379.839C910.25 370.706 907.617 360.806 907.617 350.139C907.617 333.606 913.483 319.473 925.217 307.739C936.95 296.006 951.017 290.139 967.417 290.139C968.217 290.139 970.75 291.139 975.017 293.139Z" fill="#d4b42d" fill-rule="nonzero" opacity="1" stroke="none" vectornator:layerName="path"/>
</g>
<g opacity="1" vectornator:layerName="g">
<path d="M220.071 592.207C220.071 620.252 210.796 644.769 192.244 665.76C173.693 686.75 150.742 698.986 123.394 702.471L123.394 723.635L115.294 723.635L115.294 702.471C142.642 698.986 165.593 686.75 184.144 665.76C202.696 644.769 211.972 620.252 211.972 592.207C211.972 572.698 207.355 554.669 198.123 538.12C188.891 521.571 176.436 508.333 160.759 498.404L168.859 498.404C184.536 508.333 196.991 521.571 206.223 538.12C215.455 554.669 220.071 572.698 220.071 592.207ZM194.465 592.207C194.465 617.987 185.276 640.023 166.899 658.313C148.521 676.603 126.443 685.748 100.662 685.748C99.0944 685.748 97.9621 685.661 97.2654 685.487L97.2654 723.635L77.6687 723.635L77.6687 498.404L100.662 498.404C126.443 498.404 148.521 507.592 166.899 525.97C185.276 544.348 194.465 566.427 194.465 592.207ZM174.868 592.207C174.868 571.826 167.596 554.363 153.051 539.818C138.505 525.274 121.043 518.001 100.662 518.001L97.788 518.001L97.5267 665.89L100.662 665.89C121.043 665.89 138.505 658.662 153.051 644.203C167.596 629.745 174.868 612.414 174.868 592.207ZM133.062 545.436L123.656 643.419C122.785 643.768 121.435 644.246 119.606 644.857C117.777 645.467 116.427 645.945 115.556 646.294L115.817 538.12C119.649 539.165 125.397 541.604 133.062 545.436Z" fill="#d4b42d" fill-rule="nonzero" opacity="1" stroke="none" vectornator:layerName="path"/>
<path d="M292.449 498.143L284.61 723.635L276.51 723.635L276.51 498.143L292.449 498.143ZM258.481 723.635L238.884 723.635L238.884 498.143L258.481 498.143L258.481 723.635Z" fill="#d4b42d" fill-rule="nonzero" opacity="1" stroke="none" vectornator:layerName="path"/>
<path d="M509.58 521.92L493.641 545.697C491.551 544.303 489.634 543.172 487.893 542.301L504.093 518.001L509.58 521.92ZM514.805 707.958L509.057 711.616L487.893 679.739C490.679 678.345 492.596 677.213 493.641 676.342L514.805 707.958ZM490.506 707.697C471.518 720.412 450.353 726.771 427.012 726.771C395.135 726.771 367.874 715.448 345.229 692.803C322.583 670.158 311.261 642.984 311.261 611.281C311.261 579.404 322.583 552.099 345.229 529.367C367.874 506.635 395.135 495.269 427.012 495.269C449.831 495.269 470.995 501.627 490.506 514.343L479.793 531.065C464.115 520.614 446.521 515.388 427.012 515.388C400.535 515.388 377.933 524.751 359.208 543.476C340.481 562.202 331.119 584.803 331.119 611.281C331.119 637.584 340.526 660.099 359.339 678.824C378.151 697.549 400.708 706.913 427.012 706.913C446.173 706.913 463.767 701.687 479.793 691.235L490.506 707.697ZM436.941 536.814C416.212 538.032 398.662 546.177 384.292 561.244C369.921 576.311 362.735 594.297 362.735 615.2C362.735 641.329 373.448 662.32 394.874 678.171C406.022 684.791 418.129 688.449 431.193 689.145L427.012 689.145C412.903 689.145 399.577 685.487 387.035 678.171C375.363 671.377 366.088 662.014 359.208 650.082C352.327 638.151 348.887 625.217 348.887 611.281C348.887 589.681 356.551 571.216 371.88 555.888C387.209 540.559 405.587 532.894 427.012 532.894C428.058 532.894 431.367 534.201 436.941 536.814Z" fill="#d4b42d" fill-rule="nonzero" opacity="1" stroke="none" vectornator:layerName="path"/>
<path d="M717.566 498.404L622.456 625.913L702.933 723.896L695.095 723.896L614.618 625.913L709.466 498.404L717.566 498.404ZM587.966 498.404L579.866 580.187L571.766 590.639L572.028 498.404L587.966 498.404ZM687.256 498.404L591.886 626.697L672.101 723.635L646.756 723.635L579.866 642.897L553.476 677.91L553.476 723.635L533.618 723.635L533.88 498.404L554.26 498.404L553.999 644.465L662.956 498.404L687.256 498.404ZM584.57 676.342L579.605 683.658L579.605 723.635L571.244 723.635L571.505 683.658L580.65 671.639L584.57 676.342Z" fill="#d4b42d" fill-rule="nonzero" opacity="1" stroke="none" vectornator:layerName="path"/>
</g>
</g>
</g>
</svg>
