<?xml version="1.0" encoding="UTF-8" standalone="no"?>
<!DOCTYPE svg PUBLIC "-//W3C//DTD SVG 1.1//EN" "http://www.w3.org/Graphics/SVG/1.1/DTD/svg11.dtd">
<!-- Created with Vectornator (http://vectornator.io/) -->
<svg height="100%" stroke-miterlimit="10" style="fill-rule:nonzero;clip-rule:evenodd;stroke-linecap:round;stroke-linejoin:round;" version="1.1" viewBox="0 0 1280 964" width="100%" xml:space="preserve" xmlns="http://www.w3.org/2000/svg" xmlns:vectornator="http://vectornator.io" xmlns:xlink="http://www.w3.org/1999/xlink">
<defs/>
<g id="Sin-título" vectornator:layerName="Sin título">
<g opacity="1" vectornator:layerName="g">
<path d="M1179.36 255.059C1178.82 255.114 1178.36 255 1178.31 254.804C1178.27 254.607 1177.06 255.119 1175.61 255.896C1174.17 256.739 1172.92 257.334 1172.85 257.287C1172.79 257.24 1173.16 256.788 1173.6 256.274C1174.13 255.723 1174.61 254.737 1174.76 253.905L1175.03 252.497L1173.75 253.739C1172.75 254.672 1172.4 255.256 1172.25 256.41C1172.07 257.716 1171.76 258.042 1168.94 259.882C1164.83 262.51 1164.59 262.561 1165.66 260.898C1166.51 259.525 1166.99 256.944 1166.47 256.568C1166.34 256.474 1165.74 257.15 1165.21 258.089C1164.44 259.36 1164.2 260.122 1164.26 261.268C1164.36 262.719 1164.28 262.78 1161.08 265.115C1159.27 266.411 1157.73 267.399 1157.66 267.351C1157.59 267.304 1158.04 266.295 1158.7 265.169C1159.55 263.58 1159.86 262.693 1159.87 261.271C1159.96 258.515 1159.5 258.293 1158.19 260.503C1157.12 262.381 1156.57 264.915 1157.16 265.338C1157.32 265.456 1157.42 266.022 1157.44 266.583C1157.42 267.402 1156.79 268.163 1154.34 270.154C1152.66 271.543 1151.2 272.644 1151.1 272.573C1151 272.503 1151.4 271.578 1152.01 270.578C1152.6 269.513 1153.24 268.041 1153.45 267.256C1153.86 265.726 1153.56 262.259 1153.05 262.445C1152.87 262.477 1152.12 263.706 1151.38 265.107C1150.03 267.616 1149.99 267.7 1150.4 270.312C1150.75 272.876 1150.73 273.027 1149.76 273.982C1146.52 277.179 1145.22 278.288 1145.02 278.148C1144.86 278.03 1145.26 276.824 1145.86 275.436C1147.12 272.534 1147.44 270.224 1146.86 267.991L1146.43 266.413L1145.41 268.164C1143.73 270.934 1143.36 273.09 1143.97 276.124L1144.51 278.829L1141.16 282.493C1139.29 284.519 1136.44 287.931 1134.78 290.162C1133.11 292.329 1131.66 294.164 1131.54 294.243C1131.29 294.336 1131.52 292.02 1132.01 289.505C1132.73 286.096 1132.47 283.428 1131.19 280.744L1130 278.237L1129.52 280.042C1128.55 283.651 1128.01 287.847 1128.35 289.246C1128.57 290.015 1129.18 291.387 1129.71 292.324C1131.34 294.92 1131.32 294.855 1129.2 298.354C1128.13 300.123 1126.68 302.562 1125.98 303.879C1125.26 305.132 1124.67 305.916 1124.58 305.63C1124.54 305.326 1124.7 303.459 1124.95 301.425C1125.53 296.435 1125.2 293.613 1123.69 290.764C1123 289.494 1122.27 288.308 1122.04 288.143C1121.22 287.556 1120.02 297.837 1120.61 300.243C1120.78 301.03 1121.71 302.745 1122.65 304.137L1124.36 306.631L1122.18 312.239C1120.99 315.361 1119.7 319.124 1119.31 320.61C1118.91 322.14 1118.49 323.388 1118.39 323.425C1118.09 323.537 1117.76 319.83 1117.84 317.182C1117.97 313.416 1116.81 308.28 1115.23 305.988C1113.7 303.677 1111.77 301.515 1111.58 301.936C1111.51 302.104 1111.39 304.448 1111.36 307.184C1111.2 315.067 1112.41 319.3 1115.62 321.601C1116.11 321.954 1116.92 322.864 1117.36 323.623C1118.09 324.809 1118.12 325.328 1117.64 327.521C1117.08 329.99 1116.53 334.12 1116.18 338.176L1116.05 340.173L1115.41 338.884C1115.06 338.196 1114.12 335.531 1113.33 332.983C1112.61 330.418 1111.37 327.219 1110.63 325.86C1109.47 323.699 1109 323.198 1105.94 321.056C1104.1 319.741 1102.34 318.753 1102.03 318.865C1101.37 319.106 1103.72 328.625 1105.38 332.41C1106.86 335.731 1108.27 337.129 1111.27 338.124C1112.55 338.544 1114.15 339.307 1114.8 339.776C1115.92 340.574 1116.01 340.86 1115.97 343.209C1115.91 346.418 1116.36 354.467 1116.88 359.198C1117.12 361.131 1117.21 362.797 1117.11 362.834C1116.81 362.946 1115.27 358.974 1114.44 355.841C1113.34 351.852 1112.02 348.541 1110.48 345.776C1109.44 343.925 1108.68 343.105 1106.39 341.46C1103.11 339.112 1100.36 337.636 1100.15 338.14C1100.07 338.308 1100.85 341.567 1101.82 345.355C1104.8 356.376 1106.95 359.737 1112 361.155C1114.51 361.905 1117.26 363.771 1117.47 364.968C1117.74 366.214 1118.73 380.655 1118.96 386.621C1119.12 389.433 1119.24 392.503 1119.26 393.453C1119.35 395.118 1119.33 395.16 1119.02 394.107C1118.81 393.512 1118.33 390.746 1117.93 387.919C1116.61 378.914 1115.03 373.645 1112.6 370.139C1111.13 367.983 1103.72 361.123 1103.11 361.345C1102.55 361.549 1104.15 375.164 1105.41 380.759C1106.06 383.708 1107.1 387.047 1107.78 388.251C1108.89 390.322 1109.28 390.711 1114.1 394.163C1117.08 396.301 1119.29 398.112 1119.38 398.506C1119.82 400.753 1119.13 432.584 1118.59 432.747C1118.23 432.876 1117.22 425.313 1116.96 420.489C1116.22 408.046 1113.99 401.143 1108.77 395.361C1105.86 392.171 1102.3 389.008 1102.36 389.658C1102.36 389.94 1102.48 393.332 1102.6 397.22C1102.91 406.77 1103.27 410.78 1104.33 415.457C1105.6 421.332 1106.6 422.879 1111.6 426.902C1115.81 430.254 1117.72 432.286 1118.28 433.957C1118.64 434.993 1117.45 447.926 1116.15 457.424C1115.1 465.17 1113.57 474.223 1113.32 474.316C1112.81 474.502 1112.41 466.219 1112.62 460.409C1113.23 443.086 1111.4 436.035 1103.86 426.319C1100.1 421.528 1099.73 421.096 1099.55 421.517C1099.48 421.685 1099.16 425.591 1098.84 430.166C1097.94 442.318 1098.18 450.269 1099.47 455.886C1100.38 459.735 1102.03 462.354 1106.23 466.525C1110.46 470.719 1113.15 474.802 1112.95 476.645C1112.53 480.373 1108.68 496.041 1106.08 504.815C1104.19 511.131 1100.77 521.367 1100.52 521.46C1099.93 521.707 1101.04 510.753 1102.11 505.552C1105.19 490.552 1105.06 480.97 1101.72 472.343C1100.36 468.942 1094.82 458.18 1094.43 458.287C1094.32 458.366 1093.33 462.298 1092.21 467.063C1087.6 487.149 1087.1 496.997 1090.32 504.108C1090.99 505.527 1092.85 508.568 1094.48 510.842C1096.45 513.631 1097.88 516.152 1098.84 518.601L1100.24 522.199L1098.91 525.939C1094.24 538.862 1085.5 556.701 1076.9 570.774C1074.6 574.478 1074.44 574.641 1074.92 572.944C1075.74 569.779 1078.67 563.331 1082.37 556.496C1085.33 551.063 1086.24 549.067 1087.79 544.608C1091.13 534.862 1091.68 530.518 1090.74 521.34C1090.28 517.044 1088.11 505.444 1087.72 505.163C1087.42 504.951 1079.21 518.917 1075.94 525.132C1071.93 532.789 1068.89 541.753 1068.75 546.338C1068.62 549.889 1069.45 554.509 1071.13 560.021C1072.94 565.841 1073.53 568.917 1073.68 573.324L1073.78 575.767L1071.14 579.774C1065.1 588.909 1057.21 599.185 1049.63 607.82L1046.39 611.512L1048.28 606.857C1049.7 603.404 1050.98 600.955 1053.49 597.069C1058.32 589.503 1058.77 588.667 1061.55 582.167C1065.77 572.451 1066.63 567.606 1066 557.499C1065.61 550.985 1064.18 540.852 1063.72 541.019C1063.46 541.112 1054.87 553.655 1051.98 558.144C1049.1 562.59 1043.44 574.743 1042.57 578.207C1041.32 583.374 1041.47 587.071 1043.19 594.763C1045.03 603.086 1045.46 605.937 1045.39 609.857L1045.36 612.702L1041.54 616.747C1035.14 623.467 1028.61 629.598 1020.23 636.826C1013.91 642.278 1012.28 643.476 1012.61 642.504C1013.27 640.494 1017.7 633.464 1020.03 630.776C1025.85 624.087 1031.62 615.261 1034.54 608.639C1037.76 601.237 1038.76 591.634 1037.84 576.744C1037.67 573.867 1037.4 572.341 1037.13 572.648C1036.89 572.914 1035.52 574.473 1034.02 576.154C1021.75 590.142 1017.21 596.259 1013.49 604.019C1011.66 607.837 1010.74 610.155 1010.43 611.754C1009.65 615.719 1009.77 620.988 1010.75 627.925C1011.65 634.145 1011.77 640.19 1011.07 643.384C1010.78 644.834 1010.16 645.379 1001.22 651.928C992.323 658.458 976.293 668.862 976.149 668.207C976.048 667.747 979.921 662.196 981.949 659.899C983.033 658.69 985.795 655.596 988.118 653.015C995.076 645.207 1000.85 635.884 1002.65 629.563C1004.37 623.626 1005.42 611.914 1005.14 601.783L1005.08 598.48L1004.19 599.442C1003.72 599.932 1000.83 602.824 997.8 605.838C986.788 616.752 980.818 624.165 977.08 631.58C973.974 637.738 973.26 642.742 974.143 652.368C974.905 660.694 974.91 661.966 974.401 665.904L973.943 669.824L968.753 672.775C959.982 677.739 948.002 683.765 938.264 688.09L937.036 688.643L937.964 687.101C939.98 683.748 944.077 678.964 948.472 674.779C956.274 667.3 961.179 661.053 964.964 653.728C967.182 649.415 968.164 645.872 969.262 638.108C970.077 632.183 970.866 619.398 970.422 619.135C970.127 618.924 958.858 629.045 954.058 633.767C949.936 637.817 944.626 644.104 942.546 647.411C941.604 648.887 940.157 651.821 939.268 654.163C937.289 659.308 936.938 662.587 937.439 672.105C937.696 677.641 937.618 680.288 937.015 684.048L936.238 688.898L934.102 689.958C930.735 691.681 900.622 702.574 891.714 705.287C876.425 709.932 874.986 710.279 871.447 710.223C866.6 710.111 864.818 710.654 864.014 712.505C862.643 715.659 863.604 725.01 865.552 727.345C866.565 728.568 868.744 728.2 874.163 725.908C876.838 724.793 880.641 723.55 882.601 723.191C893.06 721.259 920.626 711.186 938.447 702.786L942.733 700.73L943.915 701.963C947.013 705.013 949.407 708.495 952.409 714.235C956.482 721.957 958.215 724.193 962.482 726.923C966.488 729.465 970.761 730.6 978.513 731.141C983.604 731.482 987.198 731.413 998.75 730.818L1003.49 730.578L1002.3 728.567C1000.34 725.174 994.341 716.952 991.742 714.039C988.239 710.147 983.848 707.107 979.703 705.678C973.683 703.622 966.514 702.727 958.112 702.989C954.718 703.092 947.236 702.028 944.401 701.043C943.058 700.576 942.234 701.088 953.81 695.104C958.701 692.544 964.898 689.155 967.606 687.567C970.694 685.699 972.775 684.764 973.134 685.023C975.248 686.483 978.496 690.965 981.684 696.672C986.872 706.077 989.512 708.798 995.15 710.745C1002.4 713.241 1009.25 713.47 1027.97 711.893C1030.6 711.68 1032.79 711.378 1032.88 711.274C1033.04 710.897 1029.97 706.317 1026.6 701.914C1018.35 691.253 1012.92 687.635 1002.58 685.951C997.97 685.185 995.691 685.094 989.387 685.371C986.495 685.504 983.338 685.556 982.333 685.497C980.691 685.422 974.436 684.301 974.043 684.019C973.945 683.948 975.046 683.194 976.486 682.351C977.944 681.466 982.891 678.284 987.448 675.209L995.786 669.66L999.605 672.729C1002.41 674.964 1004.05 676.635 1005.72 678.824C1007 680.517 1009.14 682.993 1010.49 684.344C1015.93 689.688 1022.75 691.208 1035.52 689.886C1039.92 689.455 1056.14 686.523 1056.06 686.196C1055.93 685.605 1050.53 680.35 1046.81 677.243C1040.95 672.263 1036.96 670.067 1032.01 669.109C1025.54 667.781 1019.32 667.89 1009.64 669.393C1007.62 669.706 1003.72 669.887 1000.93 669.767C996.697 669.54 996.03 669.393 996.821 668.857C999.487 667.073 1009.33 659.455 1014.28 655.346L1019.94 650.632L1023.61 653.543C1026.52 655.848 1027.88 657.265 1030.15 660.266C1032.38 663.308 1033.76 664.682 1036.67 666.988C1040.02 669.664 1040.6 669.979 1043.45 670.641C1049.86 672.204 1058.1 671.716 1072.42 668.91C1077.54 667.895 1080.22 667.168 1080.05 666.77C1079.89 666.438 1078.29 664.683 1076.48 662.831C1072.28 658.551 1062.68 651.498 1059.87 650.643C1053.73 648.774 1044.96 648.497 1036.74 649.934C1031.1 650.855 1027.83 651.051 1023.54 650.67L1020.35 650.376L1025.63 645.66C1028.52 643.048 1032.52 639.293 1034.5 637.296L1038.12 633.712L1039.94 634.359C1042.3 635.165 1044.36 636.537 1050.56 641.536C1055.28 645.307 1055.88 645.687 1058.33 646.391C1064.73 648.168 1073.99 645.929 1091.61 638.272L1096.02 636.351L1092.31 633.698C1086.29 629.377 1079.76 626.126 1075.64 625.432C1073.44 625.065 1068.11 625.271 1064.61 625.906C1063.1 626.141 1058.19 627.643 1053.74 629.194C1045.8 631.942 1038.24 633.633 1039.46 632.411C1042.98 628.757 1050.17 620.791 1053.84 616.519L1058.39 611.18L1060.59 611.761C1062.11 612.195 1064.66 613.639 1069.12 616.51C1076.24 621.175 1078.43 621.972 1082.91 621.652C1085.8 621.412 1094.09 618.642 1098.84 616.311C1103.98 613.766 1115.54 607.219 1115.47 606.892C1115.35 606.475 1108.74 602.938 1105.34 601.446C1101.91 599.972 1096.89 598.579 1094.56 598.506C1089.51 598.253 1081.46 600.585 1073.41 604.684C1068.13 607.351 1059.62 610.626 1059.46 610.013C1059.44 609.84 1060.45 608.411 1061.77 606.763C1064.6 603.112 1068.57 597.63 1072.7 591.489C1074.45 588.939 1076.09 586.857 1076.35 586.83C1078.01 586.689 1083.21 588.547 1086.83 590.592C1091.79 593.427 1093.52 594.068 1096.98 594.4C1100.36 594.728 1107.47 592.211 1113.83 588.444C1118.3 585.752 1131.63 576.44 1131.52 576.089C1131.42 575.738 1123.71 572.741 1120.93 571.91C1117.01 570.753 1112.38 570.137 1110.07 570.412C1104.49 571.098 1096.41 574.678 1088.41 580.032C1083.86 583.107 1076.39 586.465 1076.94 585.204C1077.12 584.783 1077.81 583.572 1078.54 582.494C1080.37 579.669 1086.55 568.817 1088.71 564.631C1089.75 562.622 1090.82 560.851 1091.15 560.698C1091.42 560.563 1091.56 560.334 1091.4 560.216C1091.24 560.1 1092.56 556.964 1094.35 553.123C1099.42 542.357 1103.57 531.818 1107.44 519.86C1110.51 510.53 1110.09 511.283 1112.51 510.152C1113.74 509.599 1116.38 508.956 1118.39 508.685C1125.27 507.773 1128.04 506.059 1132.27 500.161C1135.2 496.085 1137.7 491.531 1141.88 482.783L1145.3 475.63L1143.46 476.017C1140.37 476.678 1132.88 479.689 1130.61 481.152C1126.78 483.645 1122.25 489.546 1118.09 497.432C1114.55 504.169 1110.8 510.138 1110.95 508.81C1111 508.295 1111.83 504.915 1112.78 501.348C1113.7 497.757 1114.99 492.507 1115.61 489.696C1116.73 484.544 1116.75 484.502 1117.99 483.41C1118.7 482.869 1121.56 481.441 1124.33 480.288C1131.71 477.249 1133.86 474.981 1137.82 465.854C1139.9 461.06 1145.27 445.05 1145.12 444.114C1145.03 443.548 1140.52 445.72 1137.15 447.938C1130.02 452.587 1127.12 457.183 1120.03 475.378C1116.88 483.496 1116.98 483.955 1119.02 471.071C1119.59 467.503 1120.29 462.432 1120.62 459.799L1121.19 454.916L1123.18 453.093C1124.28 452.057 1126.6 450.468 1128.34 449.621C1134.74 446.373 1137.22 443.025 1140.16 433.494C1141.76 428.239 1145.34 412.987 1144.98 412.729C1144.65 412.494 1136.92 418.424 1134.99 420.403C1130.93 424.607 1128.09 430.846 1125.19 441.954C1123.79 447.457 1121.69 453.954 1121.43 453.767C1121.37 453.72 1121.45 452.344 1121.61 450.693C1121.78 449.107 1122.21 443.396 1122.53 438.002L1123.14 428.292L1124.72 426.335C1125.57 425.285 1127.77 423.387 1129.61 422.114C1131.41 420.818 1133.49 419.107 1134.22 418.31C1135.87 416.401 1137.97 411.564 1139.1 406.972C1140.02 403.382 1142.53 387.354 1142.34 386.395C1142.19 385.739 1135.44 391.985 1133.28 394.684C1131.98 396.397 1131.24 397.799 1129.64 401.996C1127.71 407.016 1127.28 408.694 1125.59 418.127C1125.19 420.432 1124.49 423.41 1124.08 424.766L1123.26 427.22L1123.32 422.953C1123.32 420.581 1123.3 414.499 1123.22 409.427C1123.07 398.722 1122.93 399.231 1128.22 394.366C1131.11 391.688 1131.32 391.399 1132.86 387.758C1134.09 384.833 1134.58 383.094 1134.92 380.353C1135.5 376.14 1136.32 362.387 1136.03 362.175C1135.67 361.917 1131.5 366.762 1129.45 369.811C1127.73 372.384 1127.31 373.352 1126.49 376.236C1125.44 380.014 1124.46 386.037 1124.37 389.396C1124.27 391.806 1123.4 398.353 1123.17 398.189C1123.11 398.142 1122.89 395.175 1122.72 391.628C1122.52 388.123 1122.04 381.82 1121.7 377.66C1121.31 373.517 1121.1 369.947 1121.21 369.695C1121.54 368.938 1123.37 367.601 1126.26 365.98C1129.71 363.982 1131 362.377 1132.62 357.964C1133.94 354.44 1136.79 342.854 1136.42 342.596C1136.16 342.408 1131.25 346.217 1129.62 347.869C1127.5 349.987 1125.59 354.188 1123.89 360.472C1123.05 363.505 1122.06 366.768 1121.69 367.61L1121.01 369.166L1120.36 363.563C1119.99 360.437 1119.49 356.267 1119.24 354.268C1118.99 352.27 1118.73 349.43 1118.67 347.96L1118.58 345.237L1120.46 344.55C1121.53 344.16 1123.5 343.585 1124.84 343.275C1126.7 342.845 1127.73 342.258 1128.98 340.845C1130.63 339.043 1134.31 332.638 1136.27 328.138L1137.26 325.867L1133.92 327.009C1128.38 328.992 1126.43 331.012 1122 339.314C1120.68 341.78 1119.35 344.032 1119.04 344.251C1117.49 345.454 1119.43 327.151 1121.47 321.276C1121.75 320.43 1122.01 319.453 1122 319.065C1121.96 317.768 1126.77 306.212 1129.1 302.035C1132.15 296.607 1135.25 291.937 1135.88 291.887C1136.15 291.86 1137.14 292.523 1138.12 293.442C1139.63 294.803 1140.11 294.982 1141.76 294.949C1142.8 294.924 1144.92 294.401 1146.47 293.802L1149.31 292.696L1147.05 291.464C1144.1 289.847 1142.92 289.712 1139.49 290.676C1136.97 291.348 1135.91 291.415 1136.15 290.868C1136.19 290.784 1137.52 289.094 1139.1 287.138C1142.63 282.666 1148.09 276.925 1148.8 276.881C1149.1 276.876 1150.05 277.343 1150.9 277.953C1152.41 279.033 1152.71 279.03 1155.61 278.013L1158.73 276.945L1157.49 276.053C1155.95 274.95 1154.31 274.875 1151.49 275.723C1150.3 276.084 1149.37 276.246 1149.47 276.036C1149.56 275.826 1150.96 274.464 1152.59 272.985L1155.55 270.247L1157.54 271.679C1159.41 273.017 1159.69 273.055 1162.28 272.539C1163.75 272.215 1165.06 271.774 1165.15 271.564C1165.41 270.976 1163.19 269.551 1161.69 269.355C1160.97 269.227 1159.44 269.396 1158.31 269.697C1157.16 269.974 1156.19 270.154 1156.12 270.107C1156.05 270.061 1157.49 268.83 1159.3 267.426L1162.59 264.815L1164.03 265.848C1165.23 266.717 1165.8 266.794 1167.35 266.302L1169.18 265.741L1168.02 264.854C1167.23 264.289 1166.24 264.123 1164.85 264.344L1162.78 264.675L1164.16 263.743C1164.91 263.226 1166.44 262.173 1167.52 261.352C1169.45 259.977 1169.54 259.982 1170.86 260.987C1171.82 261.734 1172.54 261.97 1173.15 261.747C1173.97 261.45 1173.98 261.408 1172.94 260.656C1172.35 260.234 1171.51 259.903 1171.05 259.856C1170.62 259.873 1170.28 259.746 1170.34 259.62C1170.4 259.494 1172.06 258.426 1174.02 257.291C1177.15 255.404 1177.69 255.242 1178.58 255.876C1179.13 256.275 1180.22 256.554 1180.94 256.468L1182.29 256.331L1181.31 255.626C1180.75 255.227 1179.87 254.981 1179.36 255.059Z" fill="#d4b42d" fill-rule="nonzero" opacity="1" stroke="none" vectornator:layerName="path"/>
<path d="M1137.24 276.18C1135.8 280.453 1135.68 281.912 1136.73 284.54C1137.21 285.818 1137.71 286.839 1137.84 286.826C1138.07 286.709 1139.39 282.085 1139.7 280.379C1139.91 279.205 1139.26 275.371 1138.66 274.172C1138.23 273.305 1138.15 273.366 1137.24 276.18Z" fill="#d4b42d" fill-rule="nonzero" opacity="1" stroke="none" vectornator:layerName="path"/>
<path d="M1149.79 284.141C1148.41 283.865 1146.61 283.953 1143.79 284.521L1142.62 284.734L1144.32 286.343C1146.28 288.182 1147.99 288.477 1151.6 287.481L1153.82 286.921L1152.92 285.94C1151.75 284.665 1151.51 284.543 1149.79 284.141Z" fill="#d4b42d" fill-rule="nonzero" opacity="1" stroke="none" vectornator:layerName="path"/>
<path d="M1140.12 300.264C1138.64 299.918 1136.43 300.264 1132.81 301.367L1129.95 302.234L1132.3 303.925C1133.58 304.841 1135.2 305.669 1135.93 305.755C1137.41 305.993 1141.81 304.784 1143.61 303.704L1144.79 302.954L1143.04 301.751C1142.09 301.07 1140.79 300.411 1140.12 300.264Z" fill="#d4b42d" fill-rule="nonzero" opacity="1" stroke="none" vectornator:layerName="path"/>
<path d="M1138.83 312.631C1134.75 312.026 1131.69 313.141 1127.34 316.918C1125.51 318.471 1123.63 319.935 1123.18 320.168C1122.06 320.683 1122.32 321.26 1123.75 321.344C1124.38 321.36 1125.52 321.62 1126.21 321.898C1128.3 322.731 1130.45 322.62 1132.3 321.629C1134.02 320.717 1142 313.809 1141.92 313.309C1141.86 313.154 1140.48 312.879 1138.83 312.631Z" fill="#d4b42d" fill-rule="nonzero" opacity="1" stroke="none" vectornator:layerName="path"/>
<path d="M1141.16 510.708C1128.82 510.633 1123.33 513.588 1112.94 525.832C1110.37 528.894 1106.93 532.553 1105.36 533.905C1103.76 535.3 1102.52 536.564 1102.54 536.737C1102.6 536.891 1103.74 536.829 1105.09 536.585C1106.49 536.322 1109.58 536.439 1112.02 536.754C1118.6 537.722 1121.1 537.307 1124.97 534.623C1127.6 532.816 1132.09 528.528 1135.22 524.765C1137.55 521.969 1145.41 511.885 1145.64 511.38C1145.87 510.833 1145.24 510.71 1141.16 510.708Z" fill="#d4b42d" fill-rule="nonzero" opacity="1" stroke="none" vectornator:layerName="path"/>
<path d="M1135.38 543.86C1127.29 542.026 1123.75 542.078 1118.6 543.954C1113.68 545.779 1109.18 548.62 1102.81 553.876C1100.46 555.83 1096.98 558.3 1095.1 559.376C1093.23 560.409 1091.74 561.378 1091.77 561.509C1091.78 561.682 1093.18 561.915 1094.89 562.037C1096.58 562.201 1099.29 562.877 1101.01 563.668C1109.57 567.383 1113.74 566.894 1122.09 561.41C1125.17 559.369 1140.71 546.415 1141.1 545.531C1141.26 545.153 1140.88 545.044 1135.38 543.86Z" fill="#d4b42d" fill-rule="nonzero" opacity="1" stroke="none" vectornator:layerName="path"/>
</g>
<g opacity="1" vectornator:layerName="g">
<g opacity="1" vectornator:layerName="g">
<path d="M210.017 281.739L197.817 299.939C196.217 298.873 194.75 298.006 193.417 297.339L205.817 278.739L210.017 281.739ZM214.017 424.139L209.617 426.939L193.417 402.539C195.55 401.473 197.017 400.606 197.817 399.939L214.017 424.139ZM195.417 423.939C180.883 433.673 164.683 438.539 146.817 438.539C122.417 438.539 101.55 429.873 84.2168 412.539C66.8834 395.206 58.2168 374.406 58.2168 350.139C58.2168 325.739 66.8834 304.839 84.2168 287.439C101.55 270.039 122.417 261.339 146.817 261.339C164.283 261.339 180.483 266.206 195.417 275.939L187.217 288.739C175.217 280.739 161.75 276.739 146.817 276.739C126.55 276.739 109.25 283.906 94.9168 298.239C80.5834 312.573 73.4168 329.873 73.4168 350.139C73.4168 370.273 80.6168 387.506 95.0168 401.839C109.417 416.173 126.683 423.339 146.817 423.339C161.483 423.339 174.95 419.339 187.217 411.339L195.417 423.939ZM154.417 293.139C138.55 294.073 125.117 300.306 114.117 311.839C103.117 323.373 97.6168 337.139 97.6168 353.139C97.6168 373.139 105.817 389.206 122.217 401.339C130.75 406.406 140.017 409.206 150.017 409.739L146.817 409.739C136.017 409.739 125.817 406.939 116.217 401.339C107.283 396.139 100.183 388.973 94.9168 379.839C89.6501 370.706 87.0168 360.806 87.0168 350.139C87.0168 333.606 92.8834 319.473 104.617 307.739C116.35 296.006 130.417 290.139 146.817 290.139C147.617 290.139 150.15 291.139 154.417 293.139Z" fill="#d4b42d" fill-rule="nonzero" opacity="1" stroke="none" vectornator:layerName="path"/>
<path d="M287.217 263.739L281.217 407.339L275.017 407.339L275.017 263.739L287.217 263.739ZM318.617 436.139L246.417 436.139L246.417 263.739L261.417 263.739L261.417 421.139L318.617 421.139L318.617 436.139ZM337.017 436.339L330.817 436.339L330.817 407.339L337.017 407.339L337.017 436.339Z" fill="#d4b42d" fill-rule="nonzero" opacity="1" stroke="none" vectornator:layerName="path"/>
<path d="M523.017 436.339L517.017 436.339L452.217 263.939L458.417 263.939L523.017 436.339ZM502.417 436.139L486.417 436.139L480.017 418.539L392.017 418.539L385.617 436.139L369.417 436.139L436.017 255.139L502.417 436.139ZM407.617 432.339L406.017 436.339L400.017 436.339L401.617 432.339L407.617 432.339ZM474.217 403.539L436.017 299.339L397.617 403.539L474.217 403.539ZM443.217 358.139L423.017 389.739L417.017 389.739L436.017 338.539L443.217 358.139Z" fill="#d4b42d" fill-rule="nonzero" opacity="1" stroke="none" vectornator:layerName="path"/>
<path d="M635.017 292.539C632.883 292.539 630.817 292.739 628.817 293.139L628.817 263.739L635.017 263.739L635.017 292.539ZM648.017 394.339C648.017 411.273 641.617 425.273 628.817 436.339L622.817 436.339C635.617 425.273 642.017 411.273 642.017 394.339C642.017 379.806 637.217 367.273 627.617 356.739L602.817 329.539C598.15 324.339 595.817 318.606 595.817 312.339C595.817 306.473 597.783 301.706 601.717 298.039C605.65 294.373 610.55 292.539 616.417 292.539L623.017 292.539L623.017 293.339C612.217 296.006 606.817 303.339 606.817 315.339C606.817 320.139 608.817 324.873 612.817 329.539L635.817 356.739C643.95 366.339 648.017 378.873 648.017 394.339ZM628.417 394.339C628.417 405.806 624.317 415.639 616.117 423.839C607.917 432.039 598.083 436.139 586.617 436.139C574.217 436.139 563.817 431.539 555.417 422.339L566.817 412.139C572.15 418.139 578.75 421.139 586.617 421.139C593.95 421.139 600.217 418.506 605.417 413.239C610.617 407.973 613.217 401.673 613.217 394.339C613.217 387.406 610.883 381.339 606.217 376.139L581.417 348.739C571.817 338.073 567.017 325.939 567.017 312.339C567.017 298.606 571.85 287.073 581.517 277.739C591.183 268.406 602.883 263.739 616.617 263.739L616.617 278.739C607.017 278.739 598.85 281.939 592.117 288.339C585.383 294.739 582.017 302.739 582.017 312.339C582.017 322.339 585.483 331.139 592.417 338.739L617.417 365.939C624.75 373.939 628.417 383.406 628.417 394.339Z" fill="#d4b42d" fill-rule="nonzero" opacity="1" stroke="none" vectornator:layerName="path"/>
<path d="M760.017 292.539C757.883 292.539 755.817 292.739 753.817 293.139L753.817 263.739L760.017 263.739L760.017 292.539ZM773.017 394.339C773.017 411.273 766.617 425.273 753.817 436.339L747.817 436.339C760.617 425.273 767.017 411.273 767.017 394.339C767.017 379.806 762.217 367.273 752.617 356.739L727.817 329.539C723.15 324.339 720.817 318.606 720.817 312.339C720.817 306.473 722.783 301.706 726.717 298.039C730.65 294.373 735.55 292.539 741.417 292.539L748.017 292.539L748.017 293.339C737.217 296.006 731.817 303.339 731.817 315.339C731.817 320.139 733.817 324.873 737.817 329.539L760.817 356.739C768.95 366.339 773.017 378.873 773.017 394.339ZM753.417 394.339C753.417 405.806 749.317 415.639 741.117 423.839C732.917 432.039 723.083 436.139 711.617 436.139C699.217 436.139 688.817 431.539 680.417 422.339L691.817 412.139C697.15 418.139 703.75 421.139 711.617 421.139C718.95 421.139 725.217 418.506 730.417 413.239C735.617 407.973 738.217 401.673 738.217 394.339C738.217 387.406 735.883 381.339 731.217 376.139L706.417 348.739C696.817 338.073 692.017 325.939 692.017 312.339C692.017 298.606 696.85 287.073 706.517 277.739C716.183 268.406 727.883 263.739 741.617 263.739L741.617 278.739C732.017 278.739 723.85 281.939 717.117 288.339C710.383 294.739 707.017 302.739 707.017 312.339C707.017 322.339 710.483 331.139 717.417 338.739L742.417 365.939C749.75 373.939 753.417 383.406 753.417 394.339Z" fill="#d4b42d" fill-rule="nonzero" opacity="1" stroke="none" vectornator:layerName="path"/>
<path d="M846.417 263.539L840.417 436.139L834.217 436.139L834.217 263.539L846.417 263.539ZM820.417 436.139L805.417 436.139L805.417 263.539L820.417 263.539L820.417 436.139Z" fill="#d4b42d" fill-rule="nonzero" opacity="1" stroke="none" vectornator:layerName="path"/>
<path d="M1030.62 281.739L1018.42 299.939C1016.82 298.873 1015.35 298.006 1014.02 297.339L1026.42 278.739L1030.62 281.739ZM1034.62 424.139L1030.22 426.939L1014.02 402.539C1016.15 401.473 1017.62 400.606 1018.42 399.939L1034.62 424.139ZM1016.02 423.939C1001.48 433.673 985.283 438.539 967.417 438.539C943.017 438.539 922.15 429.873 904.817 412.539C887.483 395.206 878.817 374.406 878.817 350.139C878.817 325.739 887.483 304.839 904.817 287.439C922.15 270.039 943.017 261.339 967.417 261.339C984.883 261.339 1001.08 266.206 1016.02 275.939L1007.82 288.739C995.817 280.739 982.35 276.739 967.417 276.739C947.15 276.739 929.85 283.906 915.517 298.239C901.183 312.573 894.017 329.873 894.017 350.139C894.017 370.273 901.217 387.506 915.617 401.839C930.017 416.173 947.283 423.339 967.417 423.339C982.083 423.339 995.55 419.339 1007.82 411.339L1016.02 423.939ZM975.017 293.139C959.15 294.073 945.717 300.306 934.717 311.839C923.717 323.373 918.217 337.139 918.217 353.139C918.217 373.139 926.417 389.206 942.817 401.339C951.35 406.406 960.617 409.206 970.617 409.739L967.417 409.739C956.617 409.739 946.417 406.939 936.817 401.339C927.883 396.139 920.783 388.973 915.517 379.839C910.25 370.706 907.617 360.806 907.617 350.139C907.617 333.606 913.483 319.473 925.217 307.739C936.95 296.006 951.017 290.139 967.417 290.139C968.217 290.139 970.75 291.139 975.017 293.139Z" fill="#d4b42d" fill-rule="nonzero" opacity="1" stroke="none" vectornator:layerName="path"/>
</g>
<g opacity="1" vectornator:layerName="g">
<path d="M220.071 592.207C220.071 620.252 210.796 644.769 192.244 665.76C173.693 686.75 150.742 698.986 123.394 702.471L123.394 723.635L115.294 723.635L115.294 702.471C142.642 698.986 165.593 686.75 184.144 665.76C202.696 644.769 211.972 620.252 211.972 592.207C211.972 572.698 207.355 554.669 198.123 538.12C188.891 521.571 176.436 508.333 160.759 498.404L168.859 498.404C184.536 508.333 196.991 521.571 206.223 538.12C215.455 554.669 220.071 572.698 220.071 592.207ZM194.465 592.207C194.465 617.987 185.276 640.023 166.899 658.313C148.521 676.603 126.443 685.748 100.662 685.748C99.0944 685.748 97.9621 685.661 97.2654 685.487L97.2654 723.635L77.6687 723.635L77.6687 498.404L100.662 498.404C126.443 498.404 148.521 507.592 166.899 525.97C185.276 544.348 194.465 566.427 194.465 592.207ZM174.868 592.207C174.868 571.826 167.596 554.363 153.051 539.818C138.505 525.274 121.043 518.001 100.662 518.001L97.788 518.001L97.5267 665.89L100.662 665.89C121.043 665.89 138.505 658.662 153.051 644.203C167.596 629.745 174.868 612.414 174.868 592.207ZM133.062 545.436L123.656 643.419C122.785 643.768 121.435 644.246 119.606 644.857C117.777 645.467 116.427 645.945 115.556 646.294L115.817 538.12C119.649 539.165 125.397 541.604 133.062 545.436Z" fill="#d4b42d" fill-rule="nonzero" opacity="1" stroke="none" vectornator:layerName="path"/>
<path d="M292.449 498.143L284.61 723.635L276.51 723.635L276.51 498.143L292.449 498.143ZM258.481 723.635L238.884 723.635L238.884 498.143L258.481 498.143L258.481 723.635Z" fill="#d4b42d" fill-rule="nonzero" opacity="1" stroke="none" vectornator:layerName="path"/>
<path d="M509.58 521.92L493.641 545.697C491.551 544.303 489.634 543.172 487.893 542.301L504.093 518.001L509.58 521.92ZM514.805 707.958L509.057 711.616L487.893 679.739C490.679 678.345 492.596 677.213 493.641 676.342L514.805 707.958ZM490.506 707.697C471.518 720.412 450.353 726.771 427.012 726.771C395.135 726.771 367.874 715.448 345.229 692.803C322.583 670.158 311.261 642.984 311.261 611.281C311.261 579.404 322.583 552.099 345.229 529.367C367.874 506.635 395.135 495.269 427.012 495.269C449.831 495.269 470.995 501.627 490.506 514.343L479.793 531.065C464.115 520.614 446.521 515.388 427.012 515.388C400.535 515.388 377.933 524.751 359.208 543.476C340.481 562.202 331.119 584.803 331.119 611.281C331.119 637.584 340.526 660.099 359.339 678.824C378.151 697.549 400.708 706.913 427.012 706.913C446.173 706.913 463.767 701.687 479.793 691.235L490.506 707.697ZM436.941 536.814C416.212 538.032 398.662 546.177 384.292 561.244C369.921 576.311 362.735 594.297 362.735 615.2C362.735 641.329 373.448 662.32 394.874 678.171C406.022 684.791 418.129 688.449 431.193 689.145L427.012 689.145C412.903 689.145 399.577 685.487 387.035 678.171C375.363 671.377 366.088 662.014 359.208 650.082C352.327 638.151 348.887 625.217 348.887 611.281C348.887 589.681 356.551 571.216 371.88 555.888C387.209 540.559 405.587 532.894 427.012 532.894C428.058 532.894 431.367 534.201 436.941 536.814Z" fill="#d4b42d" fill-rule="nonzero" opacity="1" stroke="none" vectornator:layerName="path"/>
<path d="M717.566 498.404L622.456 625.913L702.933 723.896L695.095 723.896L614.618 625.913L709.466 498.404L717.566 498.404ZM587.966 498.404L579.866 580.187L571.766 590.639L572.028 498.404L587.966 498.404ZM687.256 498.404L591.886 626.697L672.101 723.635L646.756 723.635L579.866 642.897L553.476 677.91L553.476 723.635L533.618 723.635L533.88 498.404L554.26 498.404L553.999 644.465L662.956 498.404L687.256 498.404ZM584.57 676.342L579.605 683.658L579.605 723.635L571.244 723.635L571.505 683.658L580.65 671.639L584.57 676.342Z" fill="#d4b42d" fill-rule="nonzero" opacity="1" stroke="none" vectornator:layerName="path"/>
</g>
<g fill="#d4b42d" opacity="1" stroke="none">
<path d="M222.079 592.257C222.079 620.164 212.849 644.56 194.389 665.447C175.929 686.334 153.092 698.51 125.879 701.977L125.879 723.037L117.819 723.037L117.819 701.977C145.032 698.51 167.869 686.334 186.329 665.447C204.789 644.56 214.019 620.164 214.019 592.257C214.019 572.844 209.425 554.904 200.239 538.437C191.052 521.97 178.659 508.797 163.059 498.917L171.119 498.917C186.719 508.797 199.112 521.97 208.299 538.437C217.485 554.904 222.079 572.844 222.079 592.257ZM196.599 592.257C196.599 617.91 187.455 639.837 169.169 658.037C150.882 676.237 128.912 685.337 103.259 685.337C101.699 685.337 100.572 685.25 99.8785 685.077L99.8785 723.037L80.3785 723.037L80.3785 498.917L103.259 498.917C128.912 498.917 150.882 508.06 169.169 526.347C187.455 544.634 196.599 566.604 196.599 592.257ZM177.099 592.257C177.099 571.977 169.862 554.6 155.389 540.127C140.915 525.654 123.539 518.417 103.259 518.417L100.399 518.417L100.139 665.577L103.259 665.577C123.539 665.577 140.915 658.384 155.389 643.997C169.862 629.61 177.099 612.364 177.099 592.257ZM135.499 545.717L126.139 643.217C125.272 643.564 123.929 644.04 122.109 644.647C120.289 645.254 118.945 645.73 118.079 646.077L118.339 538.437C122.152 539.477 127.872 541.904 135.499 545.717Z"/>
<path d="M294.099 498.657L286.299 723.037L278.239 723.037L278.239 498.657L294.099 498.657ZM260.299 723.037L240.799 723.037L240.799 498.657L260.299 498.657L260.299 723.037Z"/>
<path d="M510.159 522.317L494.299 545.977C492.219 544.59 490.312 543.464 488.579 542.597L504.699 518.417L510.159 522.317ZM515.359 707.437L509.639 711.077L488.579 679.357C491.352 677.97 493.259 676.844 494.299 675.977L515.359 707.437ZM491.179 707.177C472.285 719.83 451.225 726.157 427.999 726.157C396.279 726.157 369.152 714.89 346.619 692.357C324.085 669.824 312.819 642.784 312.819 611.237C312.819 579.517 324.085 552.347 346.619 529.727C369.152 507.107 396.279 495.797 427.999 495.797C450.705 495.797 471.765 502.124 491.179 514.777L480.519 531.417C464.919 521.017 447.412 515.817 427.999 515.817C401.652 515.817 379.162 525.134 360.529 543.767C341.895 562.4 332.579 584.89 332.579 611.237C332.579 637.41 341.939 659.814 360.659 678.447C379.379 697.08 401.825 706.397 427.999 706.397C447.065 706.397 464.572 701.197 480.519 690.797L491.179 707.177ZM437.879 537.137C417.252 538.35 399.789 546.454 385.489 561.447C371.189 576.44 364.039 594.337 364.039 615.137C364.039 641.137 374.699 662.024 396.019 677.797C407.112 684.384 419.159 688.024 432.159 688.717L427.999 688.717C413.959 688.717 400.699 685.077 388.219 677.797C376.605 671.037 367.375 661.72 360.529 649.847C353.682 637.974 350.259 625.104 350.259 611.237C350.259 589.744 357.885 571.37 373.139 556.117C388.392 540.864 406.679 533.237 427.999 533.237C429.039 533.237 432.332 534.537 437.879 537.137Z"/>
<path d="M717.119 498.917L622.479 625.797L702.559 723.297L694.759 723.297L614.679 625.797L709.059 498.917L717.119 498.917ZM588.159 498.917L580.099 580.297L572.039 590.697L572.299 498.917L588.159 498.917ZM686.959 498.917L592.059 626.577L671.879 723.037L646.659 723.037L580.099 642.697L553.839 677.537L553.839 723.037L534.079 723.037L534.339 498.917L554.619 498.917L554.359 644.257L662.779 498.917L686.959 498.917ZM584.779 675.977L579.839 683.257L579.839 723.037L571.519 723.037L571.779 683.257L580.879 671.297L584.779 675.977Z"/>
<path d="M839.319 536.357C836.545 536.357 833.859 536.617 831.259 537.137L831.259 498.917L839.319 498.917L839.319 536.357ZM856.219 668.697C856.219 690.71 847.899 708.91 831.259 723.297L823.459 723.297C840.099 708.91 848.419 690.71 848.419 668.697C848.419 649.804 842.179 633.51 829.699 619.817L797.459 584.457C791.392 577.697 788.359 570.244 788.359 562.097C788.359 554.47 790.915 548.274 796.029 543.507C801.142 538.74 807.512 536.357 815.139 536.357L823.719 536.357L823.719 537.397C809.679 540.864 802.659 550.397 802.659 565.997C802.659 572.237 805.259 578.39 810.459 584.457L840.359 619.817C850.932 632.297 856.219 648.59 856.219 668.697ZM830.739 668.697C830.739 683.604 825.409 696.387 814.749 707.047C804.089 717.707 791.305 723.037 776.399 723.037C760.279 723.037 746.759 717.057 735.839 705.097L750.659 691.837C757.592 699.637 766.172 703.537 776.399 703.537C785.932 703.537 794.079 700.114 800.839 693.267C807.599 686.42 810.979 678.23 810.979 668.697C810.979 659.684 807.945 651.797 801.879 645.037L769.639 609.417C757.159 595.55 750.919 579.777 750.919 562.097C750.919 544.244 757.202 529.25 769.769 517.117C782.335 504.984 797.545 498.917 815.399 498.917L815.399 518.417C802.919 518.417 792.302 522.577 783.549 530.897C774.795 539.217 770.419 549.617 770.419 562.097C770.419 575.097 774.925 586.537 783.939 596.417L816.439 631.777C825.972 642.177 830.739 654.484 830.739 668.697Z"/>
</g>
</g>
</g>
</svg>
