<svg id="Capa_1" data-name="Capa 1" xmlns="http://www.w3.org/2000/svg" viewBox="0 0 799 51"><defs><style>.cls-1{fill:#070706;}</style></defs><title>rollo-top</title><path class="cls-1" d="M190.25,216.25v51h799v-51Zm74.5,28.44a10.07,10.07,0,0,1-10.06,10.06H213.81a10.07,10.07,0,0,1-10.06-10.06v-5.88a10.07,10.07,0,0,1,10.06-10.06h40.88a10.07,10.07,0,0,1,10.06,10.06Zm71.1.25A10.07,10.07,0,0,1,325.79,255H284.91a10.07,10.07,0,0,1-10.06-10.06v-5.88A10.07,10.07,0,0,1,284.91,229h40.88a10.07,10.07,0,0,1,10.06,10.06Zm71.1,0A10.07,10.07,0,0,1,396.89,255H356A10.07,10.07,0,0,1,346,244.94v-5.88A10.07,10.07,0,0,1,356,229h40.88A10.07,10.07,0,0,1,407,239.06Zm71.1,0A10.07,10.07,0,0,1,468,255H427.11a10.07,10.07,0,0,1-10.06-10.06v-5.88A10.07,10.07,0,0,1,427.11,229H468a10.07,10.07,0,0,1,10.06,10.06Zm71.1,0A10.07,10.07,0,0,1,539.09,255H498.21a10.07,10.07,0,0,1-10.06-10.06v-5.88A10.07,10.07,0,0,1,498.21,229h40.88a10.07,10.07,0,0,1,10.06,10.06Zm71.1,0A10.07,10.07,0,0,1,610.19,255H569.31a10.07,10.07,0,0,1-10.06-10.06v-5.88A10.07,10.07,0,0,1,569.31,229h40.88a10.07,10.07,0,0,1,10.06,10.06Zm71.1,0A10.07,10.07,0,0,1,681.29,255H640.41a10.07,10.07,0,0,1-10.06-10.06v-5.88A10.07,10.07,0,0,1,640.41,229h40.88a10.07,10.07,0,0,1,10.06,10.06Zm71.1,0A10.07,10.07,0,0,1,752.39,255H711.51a10.07,10.07,0,0,1-10.06-10.06v-5.88A10.07,10.07,0,0,1,711.51,229h40.88a10.07,10.07,0,0,1,10.06,10.06Zm71.1,0A10.07,10.07,0,0,1,823.49,255H782.61a10.07,10.07,0,0,1-10.06-10.06v-5.88A10.07,10.07,0,0,1,782.61,229h40.88a10.07,10.07,0,0,1,10.06,10.06Zm71.1,0A10.07,10.07,0,0,1,894.59,255H853.71a10.07,10.07,0,0,1-10.06-10.06v-5.88A10.07,10.07,0,0,1,853.71,229h40.88a10.07,10.07,0,0,1,10.06,10.06Zm71.1,0A10.07,10.07,0,0,1,965.69,255H924.81a10.07,10.07,0,0,1-10.06-10.06v-5.88A10.07,10.07,0,0,1,924.81,229h40.88a10.07,10.07,0,0,1,10.06,10.06Z" transform="translate(-190.25 -216.25)"/></svg>